<svg width="18" height="16" viewBox="0 0 18 16" fill="none" xmlns="http://www.w3.org/2000/svg">
<path d="M2.33333 1.33325H15.6667C16.5833 1.33325 17.3333 2.08325 17.3333 2.99992V12.9999C17.3333 13.9166 16.5833 14.6666 15.6667 14.6666H2.33333C1.41666 14.6666 0.666664 13.9166 0.666664 12.9999V2.99992C0.666664 2.08325 1.41666 1.33325 2.33333 1.33325Z" fill="white"/>
<path d="M17.3333 2.99992L9 8.83325L0.666664 2.99992" fill="white"/>
<path d="M17.3333 2.99992C17.3333 2.08325 16.5833 1.33325 15.6667 1.33325H2.33333C1.41666 1.33325 0.666664 2.08325 0.666664 2.99992M17.3333 2.99992V12.9999C17.3333 13.9166 16.5833 14.6666 15.6667 14.6666H2.33333C1.41666 14.6666 0.666664 13.9166 0.666664 12.9999V2.99992M17.3333 2.99992L9 8.83325L0.666664 2.99992" stroke="#1E1E1E" stroke-linecap="round" stroke-linejoin="round"/>
</svg>
