<svg width="17" height="18" viewBox="0 0 17 18" fill="none" xmlns="http://www.w3.org/2000/svg">
<path d="M3.8767 0.851269L3.87582 0.852256L1.80914 3.17511C1.80896 3.17532 1.80878 3.17553 1.80859 3.17574C1.33248 3.71537 1.10474 4.49396 1.21642 5.25748C1.63837 8.10908 2.98366 10.9384 5.01561 13.2223C7.05112 15.5101 9.55291 17.0079 12.0418 17.469L12.0418 17.469L12.0467 17.47C12.1483 17.4899 12.252 17.5 12.3623 17.5C12.8819 17.5 13.4029 17.2647 13.7879 16.8297L13.7886 16.829L15.8526 14.5069C16.0638 14.2694 16.1885 13.9438 16.1885 13.5852L16.1885 13.5847C16.1887 13.4099 16.1581 13.238 16.0996 13.0792C16.041 12.9205 15.9565 12.7799 15.8533 12.6642L15.8529 12.6638L13.6258 10.1626L13.6255 10.1623C13.4159 9.92654 13.1525 9.81019 12.8846 9.81019H12.8845C12.7524 9.81016 12.6199 9.83939 12.4939 9.89824C12.3677 9.95721 12.249 10.0456 12.1465 10.1615L12.1458 10.1623L10.5186 11.9929L10.2612 12.2824L9.91651 12.1055C9.0195 11.6449 8.20703 11.008 7.51663 10.2276C6.82452 9.45065 6.26521 8.54198 5.86375 7.54647L5.74782 7.25898L5.95376 7.02729L7.58092 5.1967C7.79207 4.95916 7.91676 4.63365 7.91676 4.275V4.27489C7.91679 4.10048 7.88614 3.9289 7.82765 3.77045C7.76916 3.61203 7.6847 3.47172 7.58164 3.35629L7.58092 3.35548L5.35571 0.852082C5.14617 0.616344 4.88271 0.5 4.61487 0.5H4.61474C4.48263 0.499964 4.35008 0.529197 4.22413 0.588051L4.01246 0.135067L4.22413 0.588051C4.09795 0.647013 3.97927 0.735364 3.8767 0.851269Z" fill="white" stroke="white"/>
</svg>
