<svg width="17" height="16" viewBox="0 0 17 16" fill="none" xmlns="http://www.w3.org/2000/svg">
<path d="M8.55224 0.5C9.44998 0.5 10.3136 0.865608 10.9523 1.52065C11.5915 2.17611 11.9527 3.06774 11.9527 4C11.9527 4.93226 11.5915 5.82389 10.9523 6.47935C10.3136 7.13439 9.44998 7.5 8.55224 7.5C7.65449 7.5 6.79089 7.13439 6.15215 6.47935C5.51299 5.82389 5.15174 4.93226 5.15174 4C5.15174 3.06773 5.51299 2.17611 6.15215 1.52065C6.79089 0.865608 7.65449 0.5 8.55224 0.5ZM8.55224 10.5C10.6448 10.5 12.5136 10.9356 13.8409 11.6162C15.1945 12.3102 15.8532 13.1797 15.8532 14V15.5H1.25124V14C1.25124 13.1797 1.91 12.3102 3.26361 11.6162C4.59091 10.9356 6.45971 10.5 8.55224 10.5Z" fill="white" stroke="white"/>
</svg>
