<svg width="288" height="427" viewBox="0 0 288 427" fill="none" xmlns="http://www.w3.org/2000/svg">
<path d="M203.945 0.935984L127.549 44.9552C126.806 45.4394 126.188 46.0918 125.745 46.8594C125.302 47.6269 125.047 48.4879 125 49.3724V258.95C125.049 259.834 125.305 260.694 125.748 261.461C126.19 262.228 126.807 262.881 127.549 263.367L203.945 307.386C204.737 307.786 205.612 307.995 206.5 307.995C207.388 307.995 208.263 307.786 209.055 307.386L285.439 263.367C286.184 262.884 286.805 262.232 287.25 261.464C287.695 260.697 287.952 259.835 288 258.95V49.3724C287.954 48.4864 287.697 47.624 287.252 46.8561C286.807 46.0882 286.186 45.4367 285.439 44.9552L209.114 0.935984C208.315 0.52574 207.429 0.311737 206.529 0.311737C205.63 0.311737 204.744 0.52574 203.945 0.935984Z" fill="#505288"/>
<path d="M288 49.3608L288 258.95C287.951 259.834 287.695 260.694 287.252 261.461C286.81 262.229 286.192 262.881 285.451 263.367L209.114 307.386C208.332 307.808 207.454 308.019 206.565 307.999V92.5202C207.451 92.5401 208.327 92.3376 209.114 91.9312L285.51 47.912L287.115 46.5809C287.665 47.4064 287.972 48.3697 288 49.3608Z" fill="#343564"/>
<path d="M137.121 69.9978L194.338 102.98C195.079 103.466 195.696 104.119 196.138 104.886C196.581 105.653 196.838 106.513 196.887 107.397V129.142C196.887 130.767 195.707 131.427 194.326 130.614L137.121 97.632C136.376 97.1491 135.755 96.4972 135.31 95.7296C134.865 94.962 134.608 94.1003 134.56 93.2148V71.4702C134.583 69.8447 135.728 69.185 137.121 69.9978Z" fill="#494A83"/>
<path d="M139.375 79.5746C139.439 80.4307 139.705 81.2596 140.149 81.9943C140.594 82.729 141.206 83.3488 141.936 83.8034L189.558 111.249C190.974 112.062 192.119 111.485 192.119 109.965C192.057 109.107 191.792 108.276 191.347 107.539C190.902 106.802 190.289 106.18 189.558 105.725L141.936 78.2789C140.52 77.4661 139.375 78.0433 139.375 79.5746Z" fill="white"/>
<path d="M139.375 90.6233C139.439 91.4794 139.705 92.3084 140.149 93.0431C140.594 93.7778 141.206 94.3975 141.936 94.8521L189.558 122.298C190.974 123.111 192.119 122.533 192.119 121.014C192.057 120.156 191.792 119.324 191.347 118.588C190.902 117.851 190.289 117.229 189.558 116.773L141.936 89.3276C140.52 88.5148 139.375 89.092 139.375 90.6233Z" fill="#ADAFD2"/>
<path d="M141.936 89.3276L168.149 104.44V109.965L141.936 94.8521C141.206 94.3975 140.594 93.7778 140.149 93.0431C139.705 92.3084 139.439 91.4794 139.375 90.6233C139.375 89.092 140.52 88.5148 141.936 89.3276Z" fill="white"/>
<path d="M137.121 108.669L194.338 141.651C195.08 142.137 195.697 142.79 196.14 143.557C196.582 144.324 196.838 145.185 196.887 146.069V167.79C196.887 169.415 195.707 170.075 194.326 169.262L137.121 136.28C136.376 135.797 135.755 135.145 135.31 134.378C134.865 133.61 134.608 132.748 134.56 131.863V110.142C134.583 108.516 135.728 107.857 137.121 108.669Z" fill="#494A83"/>
<path d="M139.375 118.246C139.437 119.104 139.702 119.935 140.147 120.672C140.592 121.409 141.205 122.031 141.936 122.486L189.558 149.92C190.974 150.733 192.119 150.156 192.119 148.636C192.057 147.778 191.792 146.947 191.347 146.21C190.902 145.473 190.289 144.852 189.558 144.396L141.936 116.962C140.52 116.149 139.375 116.726 139.375 118.246Z" fill="white"/>
<path d="M139.375 129.295C139.437 130.153 139.702 130.984 140.147 131.721C140.592 132.458 141.205 133.08 141.936 133.535L189.558 160.969C190.974 161.794 192.119 161.205 192.119 159.685C192.057 158.827 191.792 157.996 191.347 157.259C190.902 156.522 190.289 155.9 189.558 155.445L141.936 128.011C140.52 127.198 139.375 127.775 139.375 129.295Z" fill="#ADAFD2"/>
<path d="M141.936 128.011L182.524 151.393V156.917L141.936 133.535C141.205 133.08 140.592 132.458 140.147 131.721C139.702 130.984 139.437 130.153 139.375 129.295C139.375 127.775 140.52 127.198 141.936 128.011Z" fill="white"/>
<path d="M137.121 147.294L194.338 180.276C195.08 180.761 195.697 181.414 196.14 182.181C196.582 182.949 196.838 183.809 196.887 184.693V206.426C196.887 208.051 195.707 208.711 194.326 207.898L137.121 174.975C136.376 174.492 135.755 173.84 135.31 173.073C134.865 172.305 134.608 171.443 134.56 170.558V148.813C134.583 147.188 135.728 146.528 137.121 147.294Z" fill="#494A83"/>
<path d="M139.375 156.917C139.437 157.776 139.702 158.607 140.147 159.344C140.592 160.081 141.205 160.702 141.936 161.158L189.558 188.604C190.974 189.416 192.119 188.839 192.119 187.308C192.055 186.452 191.79 185.623 191.345 184.888C190.9 184.154 190.288 183.534 189.558 183.079L141.936 155.633C140.52 154.821 139.375 155.398 139.375 156.917Z" fill="white"/>
<path d="M139.375 167.978C139.439 168.834 139.705 169.663 140.149 170.398C140.594 171.132 141.206 171.752 141.936 172.207L189.558 199.652C190.974 200.465 192.119 199.888 192.119 198.357C192.055 197.501 191.79 196.672 191.345 195.937C190.9 195.202 190.288 194.582 189.558 194.128L141.936 166.682C140.52 165.869 139.375 166.446 139.375 167.978Z" fill="#ADAFD2"/>
<path d="M141.936 166.682L158.554 176.259V181.783L141.936 172.207C141.206 171.752 140.594 171.132 140.149 170.398C139.705 169.663 139.439 168.834 139.375 167.978C139.375 166.446 140.52 165.869 141.936 166.682Z" fill="white"/>
<path d="M137.121 186.024L194.338 219.006C195.08 219.491 195.697 220.144 196.14 220.911C196.582 221.679 196.838 222.539 196.887 223.423V245.168C196.887 246.793 195.707 247.453 194.326 246.64L137.121 213.658C136.376 213.175 135.755 212.523 135.31 211.756C134.865 210.988 134.608 210.126 134.56 209.241V187.496C134.583 185.871 135.728 185.211 137.121 186.024Z" fill="#494A83"/>
<path d="M139.375 195.589C139.439 196.445 139.705 197.274 140.149 198.008C140.594 198.743 141.206 199.363 141.936 199.817L189.558 227.263C190.974 228.076 192.119 227.499 192.119 225.967C192.055 225.111 191.79 224.282 191.345 223.548C190.9 222.813 190.288 222.193 189.558 221.739L141.936 194.293C140.52 193.492 139.375 194.069 139.375 195.589Z" fill="white"/>
<path d="M139.375 206.65C139.439 207.506 139.705 208.335 140.149 209.069C140.594 209.804 141.206 210.424 141.936 210.878L189.558 238.324C190.974 239.137 192.119 238.56 192.119 237.04C192.057 236.182 191.792 235.351 191.347 234.614C190.902 233.877 190.289 233.255 189.558 232.8L141.936 205.354C140.52 204.541 139.375 205.118 139.375 206.65Z" fill="#ADAFD2"/>
<path d="M141.936 205.354L168.149 220.455V225.979L141.936 210.902C141.206 210.447 140.594 209.827 140.149 209.092C139.705 208.358 139.439 207.529 139.375 206.673C139.375 205.118 140.52 204.541 141.936 205.354Z" fill="white"/>
<path d="M137.121 224.695L194.338 257.677C195.08 258.163 195.697 258.816 196.14 259.583C196.582 260.35 196.838 261.21 196.887 262.094V283.815C196.887 285.441 195.707 286.101 194.326 285.288L137.121 252.306C136.376 251.823 135.755 251.171 135.31 250.403C134.865 249.636 134.608 248.774 134.56 247.889V226.215C134.583 224.542 135.728 223.859 137.121 224.695Z" fill="#494A83"/>
<path d="M139.375 234.272C139.437 235.13 139.702 235.961 140.147 236.698C140.592 237.435 141.205 238.057 141.936 238.512L189.558 265.946C190.974 266.759 192.119 266.182 192.119 264.662C192.057 263.804 191.792 262.973 191.347 262.236C190.902 261.499 190.289 260.878 189.558 260.422L141.936 232.988C140.52 232.163 139.375 232.752 139.375 234.272Z" fill="white"/>
<path d="M139.375 245.321C139.437 246.179 139.702 247.01 140.147 247.747C140.592 248.484 141.205 249.106 141.936 249.561L189.558 276.995C190.974 277.808 192.119 277.231 192.119 275.711C192.057 274.853 191.792 274.022 191.347 273.285C190.902 272.548 190.289 271.927 189.558 271.471L141.936 244.037C140.52 243.224 139.375 243.801 139.375 245.321Z" fill="#ADAFD2"/>
<path d="M141.936 244.037L177.732 264.663V270.187L141.936 249.561C141.205 249.106 140.592 248.484 140.147 247.747C139.702 247.01 139.437 246.179 139.375 245.321C139.375 243.801 140.52 243.224 141.936 244.037Z" fill="white"/>
<path d="M218.485 105.83C221.129 104.299 223.277 105.689 223.277 108.94V235.297C223.213 237.015 222.747 238.695 221.915 240.2C221.082 241.706 219.908 242.996 218.485 243.966C215.841 245.497 213.693 244.096 213.693 240.845V114.488C213.757 112.771 214.224 111.093 215.056 109.589C215.888 108.086 217.063 106.798 218.485 105.83Z" fill="#494A83"/>
<path d="M218.485 241.163C219.191 240.677 219.772 240.033 220.182 239.282C220.592 238.531 220.819 237.695 220.846 236.84V110.13C220.846 108.504 219.772 107.774 218.485 108.563C217.779 109.051 217.198 109.698 216.788 110.45C216.378 111.203 216.151 112.042 216.125 112.898V239.608C216.089 241.233 217.163 241.928 218.485 241.163Z" fill="#ADAFD2"/>
<path d="M218.485 241.163C219.191 240.677 219.772 240.033 220.182 239.282C220.592 238.531 220.819 237.695 220.846 236.84L220.846 176.259L216.054 179.027V239.608C216.089 241.233 217.163 241.928 218.485 241.163Z" fill="white"/>
<path d="M232.86 97.538C235.516 96.0067 237.664 97.4084 237.664 100.66V227.016C237.6 228.733 237.134 230.411 236.301 231.915C235.469 233.418 234.294 234.706 232.872 235.674C230.217 237.205 228.069 235.815 228.069 232.564V106.208C228.132 104.489 228.599 102.809 229.431 101.304C230.263 99.798 231.438 98.5082 232.86 97.538Z" fill="#494A83"/>
<path d="M232.872 232.882C233.576 232.395 234.156 231.751 234.566 231C234.976 230.249 235.204 229.413 235.232 228.559V101.849C235.232 100.212 234.158 99.4931 232.872 100.282C232.168 100.769 231.588 101.414 231.178 102.164C230.768 102.915 230.54 103.751 230.512 104.605V231.315C230.464 232.941 231.538 233.647 232.872 232.882Z" fill="white"/>
<path d="M247.247 89.2572C249.891 87.7259 252.039 89.1159 252.039 92.367V218.723C251.978 220.442 251.513 222.123 250.68 223.629C249.848 225.135 248.672 226.425 247.247 227.393C244.603 228.924 242.455 227.522 242.455 224.271V97.915C242.519 96.1981 242.985 94.5202 243.818 93.0163C244.65 91.5125 245.825 90.2249 247.247 89.2572Z" fill="#494A83"/>
<path d="M247.247 224.589C247.953 224.104 248.534 223.46 248.944 222.709C249.354 221.958 249.581 221.121 249.607 220.266V93.5566C249.607 91.9311 248.533 91.2008 247.247 91.99C246.543 92.4767 245.963 93.1212 245.553 93.8719C245.143 94.6226 244.915 95.4586 244.887 96.313V223.035C244.851 224.66 245.925 225.355 247.247 224.589Z" fill="#ADAFD2"/>
<path d="M247.247 224.589C247.953 224.104 248.534 223.46 248.944 222.709C249.354 221.958 249.581 221.121 249.607 220.266L249.607 122.392L244.816 125.149V223.035C244.851 224.66 245.925 225.355 247.247 224.589Z" fill="white"/>
<path d="M261.634 80.9646C264.278 79.4333 266.426 80.8233 266.426 84.0861V210.443C266.37 212.167 265.906 213.855 265.074 215.367C264.241 216.88 263.063 218.175 261.634 219.147C258.978 220.679 256.842 219.289 256.842 216.038V89.6342C256.902 87.9149 257.367 86.2339 258.199 84.7276C259.032 83.2213 260.209 81.9321 261.634 80.9646Z" fill="#494A83"/>
<path d="M261.634 216.309C262.338 215.822 262.918 215.177 263.328 214.427C263.738 213.676 263.966 212.84 263.994 211.986V85.2639C263.994 83.6384 262.92 82.9081 261.634 83.7091C260.928 84.1945 260.347 84.8386 259.937 85.5896C259.527 86.3406 259.3 87.1772 259.273 88.0321V214.742C259.238 216.367 260.312 217.074 261.634 216.309Z" fill="#ADAFD2"/>
<path d="M261.634 216.309C262.338 215.822 262.918 215.177 263.328 214.427C263.738 213.676 263.966 212.84 263.994 211.986L263.994 190.594L259.203 193.351V214.742C259.238 216.367 260.312 217.074 261.634 216.309Z" fill="white"/>
<path d="M276.009 72.6836C278.664 71.1522 280.812 72.5422 280.812 75.7933V202.15C280.75 203.87 280.282 205.551 279.448 207.057C278.613 208.563 277.435 209.852 276.009 210.819C273.365 212.351 271.217 210.949 271.217 207.698V81.3296C271.283 79.6147 271.75 77.9391 272.582 76.4374C273.415 74.9358 274.588 73.65 276.009 72.6836Z" fill="#494A83"/>
<path d="M276.009 208.016C276.714 207.53 277.296 206.886 277.706 206.135C278.116 205.384 278.343 204.548 278.369 203.693V76.983C278.369 75.3574 277.307 74.6271 276.009 75.4164C275.305 75.9031 274.725 76.5476 274.315 77.2982C273.905 78.0489 273.677 78.8849 273.649 79.7393V206.461C273.613 208.086 274.687 208.781 276.009 208.016Z" fill="#ADAFD2"/>
<path d="M276.009 208.016C276.714 207.53 277.296 206.886 277.706 206.135C278.116 205.384 278.343 204.548 278.369 203.693V137.587L273.578 140.344V206.461C273.613 208.086 274.687 208.781 276.009 208.016Z" fill="white"/>
<path d="M215.735 259.338L278.747 223.023C279.927 222.363 280.801 222.893 280.801 224.201V247.111C280.761 247.82 280.554 248.51 280.198 249.124C279.841 249.738 279.344 250.259 278.747 250.645L215.723 286.961C214.543 287.609 213.682 287.09 213.682 285.783V262.872C213.72 262.163 213.927 261.473 214.284 260.859C214.64 260.245 215.138 259.724 215.735 259.338Z" fill="#494A83"/>
<path d="M218.32 266.135C218.32 267.654 219.5 268.231 220.881 267.418L273.613 237.028C274.344 236.572 274.957 235.951 275.402 235.214C275.847 234.477 276.112 233.645 276.174 232.787C276.174 231.268 274.994 230.691 273.613 231.503L220.916 261.894C220.179 262.346 219.559 262.966 219.107 263.703C218.656 264.44 218.386 265.273 218.32 266.135Z" fill="#ADAFD2"/>
<path d="M218.32 266.135C218.32 267.654 219.5 268.231 220.881 267.418L259.238 245.309V239.784L220.916 261.894C220.179 262.346 219.559 262.966 219.107 263.703C218.656 264.44 218.386 265.273 218.32 266.135Z" fill="white"/>
<path d="M218.32 277.184C218.32 278.703 219.5 279.281 220.881 278.468L273.613 248.077C274.344 247.621 274.957 247 275.402 246.263C275.847 245.526 276.112 244.695 276.174 243.837C276.174 242.317 274.994 241.74 273.613 242.553L220.916 272.943C220.179 273.395 219.559 274.015 219.107 274.752C218.656 275.489 218.386 276.323 218.32 277.184Z" fill="#ADAFD2"/>
<path d="M218.32 277.184C218.32 278.703 219.5 279.281 220.881 278.468L235.268 270.222V264.698L220.881 272.943C220.15 273.399 219.537 274.021 219.092 274.758C218.647 275.494 218.382 276.326 218.32 277.184Z" fill="white"/>
<path d="M285.439 44.9552L209.114 0.935984C208.322 0.535474 207.447 0.326764 206.559 0.326764C205.671 0.326764 204.796 0.53547 204.004 0.93598L127.549 44.9552C127.241 45.0596 126.973 45.2577 126.784 45.5218C126.594 45.7859 126.492 46.1027 126.492 46.4276C126.492 46.7525 126.594 47.0693 126.784 47.3333C126.973 47.5974 127.241 47.7956 127.549 47.9L203.945 91.931C204.737 92.3315 205.612 92.5402 206.5 92.5402C207.388 92.5402 208.263 92.3315 209.055 91.931L285.439 47.9236C285.756 47.8248 286.033 47.6275 286.23 47.3605C286.426 47.0935 286.533 46.7708 286.533 46.4394C286.533 46.108 286.426 45.7852 286.23 45.5182C286.033 45.2512 285.756 45.054 285.439 44.9552Z" fill="#434477"/>
<path d="M204.96 81.4475L145.713 47.2876C145.268 46.996 144.897 46.6045 144.63 46.1442C144.364 45.684 144.209 45.1679 144.179 44.6373V42.6348C144.209 42.1041 144.364 41.588 144.63 41.1278C144.897 40.6676 145.268 40.276 145.713 39.9844L204.96 5.8245C205.434 5.58066 205.96 5.45344 206.494 5.45344C207.028 5.45344 207.554 5.58066 208.028 5.8245L267.287 39.9844C267.734 40.2739 268.107 40.665 268.373 41.1257C268.64 41.5863 268.794 42.1035 268.821 42.6348V44.6255C268.791 45.1561 268.636 45.6722 268.37 46.1325C268.103 46.5927 267.732 46.9843 267.287 47.2758L208.028 81.4358C207.555 81.6814 207.029 81.8106 206.496 81.8127C205.962 81.8148 205.435 81.6895 204.96 81.4475Z" fill="#343564"/>
<path d="M145.713 41.7748L204.96 75.9348C205.434 76.1786 205.96 76.3058 206.494 76.3058C207.028 76.3058 207.554 76.1786 208.028 75.9348L267.287 41.7748C268.137 41.2801 268.137 40.4909 267.287 40.0079L208.028 7.02593C207.554 6.78209 207.028 6.65488 206.494 6.65488C205.96 6.65488 205.434 6.78209 204.96 7.02593L145.713 40.0079C144.863 40.5027 144.863 41.2801 145.713 41.7748Z" fill="#434477"/>
<path d="M206.506 76.288V81.8125C205.972 81.8246 205.443 81.6988 204.972 81.4473L145.713 47.2876C145.266 46.9981 144.893 46.6068 144.627 46.1461C144.36 45.6855 144.206 45.1686 144.179 44.6373V42.6581C144.199 42.1889 144.317 41.729 144.524 41.3074C144.731 40.8857 145.023 40.5114 145.382 40.208C144.828 40.691 144.922 41.3859 145.666 41.7746L204.924 75.9346C205.411 76.1901 205.957 76.312 206.506 76.288Z" fill="#505288"/>
<path d="M204.96 64.8386L164.832 41.7394C164.386 41.4486 164.015 41.0572 163.749 40.5968C163.482 40.1364 163.328 39.62 163.298 39.0891V37.1337C163.331 36.6035 163.486 36.0881 163.752 35.6281C164.019 35.1682 164.388 34.7763 164.832 34.4834L190.585 19.6768C191.573 19.0664 192.448 18.2892 193.169 17.3799L205.444 0.888863C205.741 0.50761 206.164 0.244706 206.638 0.147522C207.112 0.0503373 207.605 0.125261 208.028 0.358794L248.156 23.4462C248.602 23.7364 248.974 24.1276 249.241 24.5881C249.507 25.0487 249.661 25.5655 249.69 26.0965V39.1362C249.659 39.6669 249.505 40.183 249.238 40.6432C248.972 41.1034 248.601 41.495 248.156 41.7865L208.028 64.8739C207.551 65.1123 207.024 65.2335 206.49 65.2274C205.956 65.2212 205.432 65.0879 204.96 64.8386Z" fill="#343564"/>
<path d="M208.028 59.3494L233.734 44.5429C234.724 43.9108 235.598 43.114 236.318 42.187L248.593 25.696C248.74 25.5182 248.845 25.3097 248.901 25.0859C248.957 24.862 248.962 24.6284 248.916 24.4024C248.869 24.1764 248.773 23.9636 248.633 23.7798C248.493 23.5959 248.314 23.4457 248.109 23.3401L207.981 0.25274C207.558 0.0192059 207.065 -0.0557176 206.591 0.041467C206.117 0.138652 205.693 0.401555 205.397 0.782809L193.122 17.2738C192.48 18.1915 191.681 18.989 190.762 19.6297L164.797 34.342C164.611 34.4035 164.449 34.5219 164.334 34.6805C164.219 34.8391 164.158 35.0298 164.158 35.2255C164.158 35.4211 164.219 35.6118 164.334 35.7704C164.449 35.929 164.611 36.0474 164.797 36.1089L204.924 59.2081C205.392 59.4799 205.918 59.6348 206.459 59.6594C207 59.684 207.538 59.5777 208.028 59.3494Z" fill="#434477"/>
<path d="M248.061 23.4344L207.934 0.346982C207.511 0.113448 207.017 0.0385244 206.544 0.135709C206.07 0.232894 205.646 0.495797 205.349 0.877051L193.075 17.3681C192.699 17.8416 192.281 18.2793 191.824 18.6756C191.824 18.6756 235.079 43.5534 235.079 43.5416C235.535 43.1493 235.954 42.7155 236.33 42.2459L248.604 25.7549C248.743 25.5739 248.84 25.3646 248.888 25.1419C248.936 24.9191 248.934 24.6886 248.882 24.4667C248.83 24.2449 248.729 24.0373 248.587 23.8588C248.446 23.6803 248.266 23.5354 248.061 23.4344Z" fill="#434477"/>
<path d="M174.605 34.8956C175.162 34.6113 175.779 34.4631 176.404 34.4631C177.03 34.4631 177.647 34.6113 178.204 34.8956C178.421 34.9695 178.609 35.1092 178.742 35.2951C178.875 35.481 178.947 35.7037 178.947 35.9322C178.947 36.1607 178.875 36.3835 178.742 36.5693C178.609 36.7552 178.421 36.8949 178.204 36.9688C177.645 37.2477 177.029 37.3928 176.404 37.3928C175.78 37.3928 175.163 37.2477 174.605 36.9688C174.388 36.8949 174.2 36.7552 174.067 36.5693C173.934 36.3835 173.862 36.1607 173.862 35.9322C173.862 35.7037 173.934 35.481 174.067 35.2951C174.2 35.1092 174.388 34.9695 174.605 34.8956Z" fill="white"/>
<path d="M181.804 39.0421C182.353 38.7656 182.959 38.6216 183.574 38.6216C184.189 38.6216 184.796 38.7656 185.345 39.0421C185.561 39.116 185.749 39.2557 185.882 39.4415C186.016 39.6274 186.087 39.8502 186.087 40.0787C186.087 40.3072 186.016 40.5299 185.882 40.7158C185.749 40.9017 185.561 41.0413 185.345 41.1152C184.794 41.3864 184.188 41.5274 183.574 41.5274C182.96 41.5274 182.355 41.3864 181.804 41.1152C181.587 41.0413 181.399 40.9017 181.266 40.7158C181.133 40.5299 181.061 40.3072 181.061 40.0787C181.061 39.8502 181.133 39.6274 181.266 39.4415C181.399 39.2557 181.587 39.116 181.804 39.0421Z" fill="white"/>
<path d="M189.05 43.1763C189.609 42.8975 190.226 42.7523 190.85 42.7523C191.475 42.7523 192.091 42.8975 192.65 43.1763C192.867 43.2502 193.055 43.3899 193.188 43.5758C193.321 43.7617 193.393 43.9844 193.393 44.2129C193.393 44.4414 193.321 44.6642 193.188 44.85C193.055 45.0359 192.867 45.1756 192.65 45.2495C192.093 45.5338 191.476 45.6821 190.85 45.6821C190.225 45.6821 189.608 45.5338 189.05 45.2495C188.834 45.1756 188.646 45.0359 188.513 44.85C188.38 44.6642 188.308 44.4414 188.308 44.2129C188.308 43.9844 188.38 43.7617 188.513 43.5758C188.646 43.3899 188.834 43.2502 189.05 43.1763Z" fill="#343564"/>
<path d="M196.132 47.3227C196.691 47.0438 197.307 46.8987 197.932 46.8987C198.556 46.8987 199.173 47.0438 199.731 47.3227C199.948 47.3966 200.136 47.5363 200.269 47.7222C200.402 47.908 200.474 48.1308 200.474 48.3593C200.474 48.5878 200.402 48.8106 200.269 48.9964C200.136 49.1823 199.948 49.322 199.731 49.3959C199.174 49.6802 198.557 49.8285 197.932 49.8285C197.306 49.8285 196.689 49.6802 196.132 49.3959C195.915 49.322 195.727 49.1823 195.594 48.9964C195.461 48.8106 195.389 48.5878 195.389 48.3593C195.389 48.1308 195.461 47.908 195.594 47.7222C195.727 47.5363 195.915 47.3966 196.132 47.3227Z" fill="#343564"/>
<path d="M181.804 34.283C183.205 34.283 184.341 33.6291 184.341 32.8224C184.341 32.0157 183.205 31.3618 181.804 31.3618C180.403 31.3618 179.266 32.0157 179.266 32.8224C179.266 33.6291 180.403 34.283 181.804 34.283Z" fill="white"/>
<path d="M187.198 35.9324C187.747 35.6559 188.353 35.5119 188.968 35.5119C189.583 35.5119 190.189 35.6559 190.738 35.9324C190.955 36.0063 191.143 36.1459 191.276 36.3318C191.409 36.5177 191.481 36.7405 191.481 36.9689C191.481 37.1974 191.409 37.4202 191.276 37.6061C191.143 37.7919 190.955 37.9316 190.738 38.0055C190.188 38.2767 189.582 38.4177 188.968 38.4177C188.354 38.4177 187.748 38.2767 187.198 38.0055C186.194 37.4283 186.194 36.4978 187.198 35.9324Z" fill="#343564"/>
<path d="M196.179 42.5757C197.58 42.5757 198.716 41.9218 198.716 41.1151C198.716 40.3084 197.58 39.6544 196.179 39.6544C194.778 39.6544 193.642 40.3084 193.642 41.1151C193.642 41.9218 194.778 42.5757 196.179 42.5757Z" fill="white"/>
<path d="M201.573 44.2131C202.124 43.9437 202.729 43.8036 203.343 43.8036C203.957 43.8036 204.562 43.9437 205.113 44.2131C205.33 44.287 205.518 44.4267 205.651 44.6125C205.784 44.7984 205.856 45.0212 205.856 45.2497C205.856 45.4782 205.784 45.7009 205.651 45.8868C205.518 46.0727 205.33 46.2123 205.113 46.2862C204.564 46.5609 203.958 46.7039 203.343 46.7039C202.728 46.7039 202.122 46.5609 201.573 46.2862C201.356 46.2123 201.168 46.0727 201.035 45.8868C200.902 45.7009 200.83 45.4782 200.83 45.2497C200.83 45.0212 200.902 44.7984 201.035 44.6125C201.168 44.4267 201.356 44.287 201.573 44.2131Z" fill="#343564"/>
<path d="M185.392 28.6759C185.943 28.4065 186.548 28.2664 187.162 28.2664C187.776 28.2664 188.381 28.4065 188.932 28.6759C189.149 28.7498 189.337 28.8895 189.47 29.0754C189.603 29.2612 189.675 29.484 189.675 29.7125C189.675 29.941 189.603 30.1638 189.47 30.3496C189.337 30.5355 189.149 30.6752 188.932 30.7491C188.383 31.0237 187.777 31.1668 187.162 31.1668C186.547 31.1668 185.941 31.0237 185.392 30.7491C185.175 30.6752 184.987 30.5355 184.854 30.3496C184.721 30.1638 184.649 29.941 184.649 29.7125C184.649 29.484 184.721 29.2612 184.854 29.0754C184.987 28.8895 185.175 28.7498 185.392 28.6759Z" fill="#343564"/>
<path d="M192.591 32.8224C193.14 32.5459 193.747 32.4019 194.361 32.4019C194.976 32.4019 195.583 32.5459 196.132 32.8224C196.348 32.8963 196.536 33.036 196.67 33.2218C196.803 33.4077 196.874 33.6305 196.874 33.859C196.874 34.0874 196.803 34.3102 196.67 34.4961C196.536 34.682 196.348 34.8216 196.132 34.8955C195.581 35.1667 194.975 35.3077 194.361 35.3077C193.748 35.3077 193.142 35.1667 192.591 34.8955C192.375 34.8216 192.186 34.682 192.053 34.4961C191.92 34.3102 191.849 34.0874 191.849 33.859C191.849 33.6305 191.92 33.4077 192.053 33.2218C192.186 33.036 192.375 32.8963 192.591 32.8224Z" fill="white"/>
<path d="M199.779 36.9689C200.328 36.6942 200.934 36.5512 201.549 36.5512C202.164 36.5512 202.77 36.6942 203.319 36.9689C203.536 37.0428 203.724 37.1825 203.857 37.3684C203.99 37.5542 204.062 37.777 204.062 38.0055C204.062 38.234 203.99 38.4568 203.857 38.6426C203.724 38.8285 203.536 38.9682 203.319 39.0421C202.768 39.3115 202.163 39.4516 201.549 39.4516C200.935 39.4516 200.33 39.3115 199.779 39.0421C199.562 38.9682 199.374 38.8285 199.241 38.6426C199.108 38.4568 199.036 38.234 199.036 38.0055C199.036 37.777 199.108 37.5542 199.241 37.3684C199.374 37.1825 199.562 37.0428 199.779 36.9689Z" fill="#343564"/>
<path d="M203.414 51.3866C203.971 51.1023 204.588 50.954 205.214 50.954C205.839 50.954 206.456 51.1023 207.013 51.3866C207.23 51.4605 207.418 51.6002 207.551 51.786C207.684 51.9719 207.756 52.1947 207.756 52.4232C207.756 52.6517 207.684 52.8744 207.551 53.0603C207.418 53.2462 207.23 53.3858 207.013 53.4598C206.455 53.7386 205.838 53.8838 205.214 53.8838C204.589 53.8838 203.973 53.7386 203.414 53.4598C203.197 53.3858 203.009 53.2462 202.876 53.0603C202.743 52.8744 202.671 52.6517 202.671 52.4232C202.671 52.1947 202.743 51.9719 202.876 51.786C203.009 51.6002 203.197 51.4605 203.414 51.3866Z" fill="white"/>
<path d="M210.601 50.7739C212.003 50.7739 213.139 50.1199 213.139 49.3133C213.139 48.5066 212.003 47.8526 210.601 47.8526C209.2 47.8526 208.064 48.5066 208.064 49.3133C208.064 50.1199 209.2 50.7739 210.601 50.7739Z" fill="#343564"/>
<path d="M206.966 41.1152C207.516 40.8405 208.122 40.6975 208.737 40.6975C209.351 40.6975 209.957 40.8405 210.507 41.1152C210.723 41.1891 210.912 41.3288 211.045 41.5147C211.178 41.7005 211.249 41.9233 211.249 42.1518C211.249 42.3803 211.178 42.603 211.045 42.7889C210.912 42.9748 210.723 43.1145 210.507 43.1884C209.956 43.4578 209.35 43.5978 208.737 43.5978C208.123 43.5978 207.517 43.4578 206.966 43.1884C206.75 43.1145 206.562 42.9748 206.428 42.7889C206.295 42.603 206.224 42.3803 206.224 42.1518C206.224 41.9233 206.295 41.7005 206.428 41.5147C206.562 41.3288 206.75 41.1891 206.966 41.1152Z" fill="#343564"/>
<path d="M190.785 25.5783C191.343 25.2939 191.959 25.1457 192.585 25.1457C193.211 25.1457 193.828 25.2939 194.385 25.5783C194.602 25.6522 194.79 25.7918 194.923 25.9777C195.056 26.1636 195.128 26.3864 195.128 26.6148C195.128 26.8433 195.056 27.0661 194.923 27.252C194.79 27.4378 194.602 27.5775 194.385 27.6514C193.826 27.9303 193.21 28.0755 192.585 28.0755C191.96 28.0755 191.344 27.9303 190.785 27.6514C190.569 27.5775 190.381 27.4378 190.248 27.252C190.114 27.0661 190.043 26.8433 190.043 26.6148C190.043 26.3864 190.114 26.1636 190.248 25.9777C190.381 25.7918 190.569 25.6522 190.785 25.5783Z" fill="white"/>
<path d="M199.779 32.2099C201.18 32.2099 202.316 31.5559 202.316 30.7492C202.316 29.9425 201.18 29.2886 199.779 29.2886C198.377 29.2886 197.241 29.9425 197.241 30.7492C197.241 31.5559 198.377 32.2099 199.779 32.2099Z" fill="#343564"/>
<path d="M205.172 33.859C205.723 33.5878 206.329 33.4468 206.943 33.4468C207.557 33.4468 208.162 33.5878 208.713 33.859C208.93 33.9329 209.118 34.0726 209.251 34.2584C209.384 34.4443 209.455 34.6671 209.455 34.8956C209.455 35.124 209.384 35.3468 209.251 35.5327C209.118 35.7186 208.93 35.8582 208.713 35.9321C208.164 36.2086 207.558 36.3526 206.943 36.3526C206.328 36.3526 205.721 36.2086 205.172 35.9321C204.956 35.8582 204.768 35.7186 204.634 35.5327C204.501 35.3468 204.43 35.124 204.43 34.8956C204.43 34.6671 204.501 34.4443 204.634 34.2584C204.768 34.0726 204.956 33.9329 205.172 33.859Z" fill="white"/>
<path d="M214.154 40.5025C215.555 40.5025 216.691 39.8485 216.691 39.0418C216.691 38.2352 215.555 37.5812 214.154 37.5812C212.752 37.5812 211.616 38.2352 211.616 39.0418C211.616 39.8485 212.752 40.5025 214.154 40.5025Z" fill="#343564"/>
<path d="M214.201 45.1789C214.758 44.8945 215.375 44.7463 216.001 44.7463C216.627 44.7463 217.243 44.8945 217.801 45.1789C218.019 45.2496 218.209 45.3874 218.344 45.5725C218.478 45.7577 218.551 45.9807 218.551 46.2096C218.551 46.4384 218.478 46.6614 218.344 46.8466C218.209 47.0317 218.019 47.1695 217.801 47.2402C217.243 47.5246 216.627 47.6728 216.001 47.6728C215.375 47.6728 214.758 47.5246 214.201 47.2402C213.983 47.1695 213.793 47.0317 213.658 46.8466C213.523 46.6614 213.451 46.4384 213.451 46.2096C213.451 45.9807 213.523 45.7577 213.658 45.5725C213.793 45.3874 213.983 45.2496 214.201 45.1789Z" fill="white"/>
<path d="M219.595 42.0693C220.144 41.7928 220.75 41.6488 221.365 41.6488C221.98 41.6488 222.586 41.7928 223.135 42.0693C224.138 42.6347 224.138 43.5653 223.135 44.1425C222.585 44.4136 221.979 44.5546 221.365 44.5546C220.751 44.5546 220.145 44.4136 219.595 44.1425C219.378 44.0685 219.19 43.9289 219.057 43.743C218.924 43.5571 218.852 43.3344 218.852 43.1059C218.852 42.8774 218.924 42.6546 219.057 42.4688C219.19 42.2829 219.378 42.1432 219.595 42.0693Z" fill="#343564"/>
<path d="M206.589 59.7146V65.2273C206.028 65.2543 205.47 65.1323 204.972 64.8739L164.844 41.7747C164.397 41.4852 164.025 41.0942 163.758 40.6335C163.491 40.1728 163.338 39.6557 163.31 39.1244V37.1337C163.336 36.6609 163.461 36.1988 163.677 35.777C163.892 35.3551 164.193 34.9827 164.561 34.6836C164.006 35.1665 164.101 35.8615 164.844 36.2502L204.972 59.3494C205.469 59.6119 206.027 59.7379 206.589 59.7146Z" fill="#505288"/>
<path d="M198.492 16.6847C198.689 16.4292 198.972 16.2529 199.288 16.188C199.604 16.1232 199.933 16.174 200.215 16.3313L235.079 36.3797C235.209 36.4518 235.322 36.5513 235.41 36.6713C235.497 36.7913 235.558 36.9289 235.587 37.0745C235.616 37.2202 235.613 37.3704 235.579 37.5149C235.544 37.6593 235.478 37.7945 235.386 37.911C235.189 38.1665 234.908 38.3436 234.592 38.4105C234.276 38.4774 233.947 38.4298 233.663 38.2761L198.787 18.2278C198.658 18.1534 198.546 18.052 198.459 17.9305C198.373 17.809 198.313 17.6703 198.285 17.5238C198.257 17.3773 198.261 17.2265 198.297 17.0817C198.333 16.9369 198.399 16.8015 198.492 16.6847Z" fill="#ADAFD2"/>
<path d="M198.492 16.6847C198.689 16.4292 198.972 16.2529 199.288 16.188C199.604 16.1232 199.933 16.174 200.215 16.3313L226.18 31.2675L224.74 33.2111L198.776 18.2749C198.639 18.2004 198.522 18.0964 198.431 17.9705C198.341 17.8446 198.28 17.7001 198.252 17.5475C198.225 17.3949 198.233 17.2382 198.274 17.0889C198.316 16.9396 198.39 16.8015 198.492 16.6847Z" fill="white"/>
<path d="M201.36 12.8213C201.557 12.5658 201.839 12.3895 202.156 12.3246C202.472 12.2598 202.801 12.3106 203.083 12.4679L237.959 32.5634C238.09 32.6345 238.204 32.7332 238.293 32.8527C238.382 32.9722 238.443 33.1096 238.474 33.2553C238.504 33.4011 238.502 33.5517 238.468 33.6966C238.434 33.8416 238.369 33.9774 238.277 34.0947C238.076 34.3472 237.791 34.5209 237.474 34.5855C237.157 34.6501 236.827 34.6014 236.542 34.4481L201.679 14.3644C201.547 14.2921 201.433 14.1922 201.344 14.0716C201.255 13.9511 201.194 13.8127 201.163 13.6661C201.133 13.5195 201.135 13.368 201.169 13.2222C201.203 13.0764 201.268 12.9396 201.36 12.8213Z" fill="#ADAFD2"/>
<path d="M201.36 12.8213C201.557 12.5658 201.839 12.3895 202.156 12.3246C202.472 12.2598 202.801 12.3106 203.083 12.4679L211.746 17.4624L210.294 19.347L201.632 14.3644C201.504 14.288 201.394 14.1851 201.31 14.0626C201.226 13.9402 201.169 13.8011 201.143 13.6547C201.117 13.5084 201.123 13.3582 201.161 13.2144C201.198 13.0706 201.266 12.9366 201.36 12.8213Z" fill="white"/>
<path d="M204.24 8.96955C204.437 8.71404 204.719 8.53775 205.036 8.47287C205.352 8.40799 205.681 8.45886 205.963 8.61617L240.838 28.7116C240.97 28.784 241.084 28.8839 241.173 29.0044C241.262 29.125 241.324 29.2633 241.354 29.4099C241.384 29.5566 241.382 29.708 241.348 29.8539C241.314 29.9997 241.249 30.1364 241.157 30.2547C240.957 30.5063 240.675 30.6796 240.36 30.7442C240.045 30.8088 239.717 30.7606 239.434 30.6081L204.559 10.5009C204.428 10.4298 204.314 10.331 204.225 10.2115C204.136 10.092 204.074 9.95465 204.044 9.80891C204.013 9.66318 204.015 9.51259 204.049 9.36764C204.083 9.22269 204.148 9.08684 204.24 8.96955Z" fill="#ADAFD2"/>
<path d="M204.24 8.96955C204.437 8.71404 204.719 8.53775 205.036 8.47287C205.352 8.40799 205.681 8.45886 205.963 8.61617L224.127 19.0526L222.687 20.9844L204.523 10.5598C204.385 10.4869 204.266 10.3836 204.174 10.2578C204.082 10.1319 204.02 9.98688 203.993 9.8336C203.966 9.68032 203.974 9.52284 204.016 9.37313C204.059 9.22341 204.136 9.08539 204.24 8.96955Z" fill="white"/>
<path d="M207.12 5.1058C207.316 4.85033 207.598 4.67324 207.914 4.60632C208.23 4.53939 208.559 4.58701 208.843 4.74064L243.765 24.789C243.896 24.8624 244.009 24.963 244.097 25.084C244.184 25.2051 244.245 25.3436 244.274 25.4902C244.303 25.6367 244.3 25.7878 244.265 25.9331C244.231 26.0785 244.165 26.2145 244.072 26.3321C243.875 26.5876 243.593 26.7639 243.277 26.8287C242.96 26.8936 242.631 26.8428 242.349 26.6854L207.438 6.6371C207.307 6.56601 207.193 6.46728 207.104 6.34778C207.015 6.22829 206.954 6.09089 206.923 5.94515C206.893 5.79942 206.895 5.64884 206.929 5.50388C206.963 5.35893 207.028 5.22309 207.12 5.1058Z" fill="#ADAFD2"/>
<path d="M207.12 5.1058C207.316 4.85033 207.598 4.67324 207.914 4.60632C208.23 4.53939 208.559 4.58701 208.843 4.74064L240.508 22.9868L239.056 24.9186L207.438 6.6371C207.307 6.56601 207.193 6.46728 207.104 6.34778C207.015 6.22829 206.954 6.09089 206.923 5.94515C206.893 5.79942 206.895 5.64884 206.929 5.50388C206.963 5.35893 207.028 5.22309 207.12 5.1058Z" fill="white"/>
<path d="M84.0552 42.9329L160.451 86.8092C161.194 87.2919 161.812 87.9422 162.255 88.7072C162.698 89.4723 162.953 90.3305 163 91.2121V300.109C162.951 300.99 162.695 301.847 162.252 302.612C161.81 303.377 161.193 304.028 160.451 304.512L84.0552 348.388C83.2632 348.787 82.3878 348.995 81.5 348.995C80.6122 348.995 79.7368 348.787 78.9448 348.388L2.56108 304.512C1.81579 304.03 1.19539 303.381 0.750339 302.615C0.305285 301.85 0.048195 300.991 2.52074e-05 300.109V91.2121C0.0463191 90.329 0.3026 89.4694 0.74782 88.704C1.19304 87.9386 1.81448 87.2892 2.56108 86.8092L78.8858 42.9329C79.6854 42.524 80.5715 42.3107 81.4705 42.3107C82.3695 42.3107 83.2556 42.524 84.0552 42.9329Z" fill="#505288"/>
<path d="M0 91.2006L2.52074e-05 300.109C0.0487347 300.99 0.304752 301.848 0.747545 302.612C1.19033 303.377 1.80749 304.028 2.54928 304.512L78.8858 348.388C79.6679 348.808 80.5465 349.019 81.4351 348.999V134.22C80.5493 134.24 79.6727 134.038 78.8858 133.633L2.49025 89.7564L0.885167 88.4297C0.334857 89.2525 0.0281387 90.2127 0 91.2006Z" fill="#343564"/>
<path d="M150.879 111.771L93.6621 144.645C92.921 145.13 92.3044 145.781 91.8617 146.546C91.4189 147.31 91.1625 148.167 91.1129 149.048V170.722C91.1129 172.343 92.2931 173 93.6739 172.19L150.879 139.315C151.624 138.834 152.245 138.184 152.69 137.419C153.135 136.654 153.392 135.795 153.44 134.912V113.238C153.417 111.618 152.272 110.96 150.879 111.771Z" fill="#494A83"/>
<path d="M148.625 121.316C148.561 122.17 148.295 122.996 147.851 123.728C147.406 124.46 146.794 125.078 146.064 125.531L98.4421 152.888C97.0258 153.698 95.881 153.123 95.881 151.608C95.9433 150.753 96.2078 149.924 96.6528 149.19C97.0978 148.455 97.7109 147.836 98.4421 147.381L146.064 120.025C147.48 119.215 148.625 119.79 148.625 121.316Z" fill="white"/>
<path d="M148.625 132.329C148.561 133.182 148.295 134.009 147.851 134.741C147.406 135.473 146.794 136.091 146.064 136.544L98.4421 163.901C97.0258 164.711 95.881 164.136 95.881 162.621C95.9433 161.766 96.2078 160.937 96.6528 160.203C97.0978 159.468 97.7109 158.848 98.4421 158.394L146.064 131.038C147.48 130.227 148.625 130.803 148.625 132.329Z" fill="#ADAFD2"/>
<path d="M146.064 131.038L119.851 146.101V151.608L146.064 136.544C146.794 136.091 147.406 135.473 147.851 134.741C148.295 134.009 148.561 133.182 148.625 132.329C148.625 130.803 147.48 130.227 146.064 131.038Z" fill="white"/>
<path d="M150.879 150.317L93.6621 183.192C92.9204 183.676 92.3032 184.326 91.8604 185.091C91.4176 185.856 91.1616 186.713 91.1129 187.594V209.245C91.1129 210.865 92.2931 211.523 93.6739 210.713L150.879 177.838C151.624 177.356 152.245 176.707 152.69 175.941C153.135 175.176 153.392 174.317 153.44 173.435V151.784C153.417 150.164 152.272 149.506 150.879 150.317Z" fill="#494A83"/>
<path d="M148.625 159.862C148.563 160.717 148.298 161.546 147.853 162.28C147.408 163.015 146.795 163.634 146.064 164.089L98.4421 191.433C97.0258 192.244 95.881 191.668 95.881 190.154C95.9433 189.298 96.2078 188.47 96.6528 187.735C97.0978 187.001 97.7109 186.381 98.4421 185.927L146.064 158.582C147.48 157.772 148.625 158.347 148.625 159.862Z" fill="white"/>
<path d="M148.625 170.875C148.563 171.73 148.298 172.559 147.853 173.293C147.408 174.028 146.795 174.647 146.064 175.102L98.4421 202.447C97.0258 203.268 95.881 202.681 95.881 201.167C95.9433 200.311 96.2078 199.483 96.6528 198.748C97.0978 198.014 97.7109 197.394 98.4421 196.94L146.064 169.595C147.48 168.785 148.625 169.36 148.625 170.875Z" fill="#ADAFD2"/>
<path d="M146.064 169.595L105.476 192.901V198.408L146.064 175.102C146.795 174.647 147.408 174.028 147.853 173.293C148.298 172.559 148.563 171.73 148.625 170.875C148.625 169.36 147.48 168.785 146.064 169.595Z" fill="white"/>
<path d="M150.879 188.815L93.6621 221.69C92.9204 222.174 92.3032 222.825 91.8604 223.59C91.4176 224.355 91.1616 225.212 91.1129 226.093V247.755C91.1129 249.376 92.2931 250.033 93.6739 249.223L150.879 216.407C151.624 215.925 152.245 215.276 152.69 214.511C153.135 213.746 153.392 212.887 153.44 212.004V190.33C153.417 188.71 152.272 188.052 150.879 188.815Z" fill="#494A83"/>
<path d="M148.625 198.408C148.563 199.263 148.298 200.092 147.853 200.826C147.408 201.561 146.795 202.18 146.064 202.635L98.4421 229.991C97.0258 230.801 95.881 230.226 95.881 228.7C95.9451 227.846 96.2104 227.02 96.6554 226.288C97.1003 225.556 97.7124 224.938 98.4421 224.485L146.064 197.128C147.48 196.318 148.625 196.893 148.625 198.408Z" fill="white"/>
<path d="M148.625 209.432C148.561 210.286 148.295 211.112 147.851 211.844C147.406 212.577 146.794 213.194 146.064 213.647L98.4421 241.004C97.0258 241.814 95.881 241.239 95.881 239.713C95.9451 238.859 96.2104 238.033 96.6554 237.301C97.1003 236.568 97.7124 235.951 98.4421 235.498L146.064 208.141C147.48 207.331 148.625 207.906 148.625 209.432Z" fill="#ADAFD2"/>
<path d="M146.064 208.141L129.446 217.686V223.193L146.064 213.647C146.794 213.194 147.406 212.577 147.851 211.844C148.295 211.112 148.561 210.286 148.625 209.432C148.625 207.906 147.48 207.331 146.064 208.141Z" fill="white"/>
<path d="M150.879 227.42L93.6621 260.295C92.9204 260.779 92.3032 261.429 91.8604 262.194C91.4176 262.959 91.1616 263.816 91.1129 264.698V286.372C91.1129 287.992 92.2931 288.649 93.6739 287.839L150.879 254.964C151.624 254.483 152.245 253.833 152.69 253.068C153.135 252.303 153.392 251.444 153.44 250.561V228.887C153.417 227.267 152.272 226.61 150.879 227.42Z" fill="#494A83"/>
<path d="M148.625 236.954C148.561 237.807 148.295 238.633 147.851 239.366C147.406 240.098 146.794 240.716 146.064 241.169L98.4421 268.525C97.0258 269.335 95.881 268.76 95.881 267.234C95.9451 266.38 96.2104 265.554 96.6554 264.822C97.1003 264.09 97.7124 263.472 98.4421 263.019L146.064 235.662C147.48 234.864 148.625 235.439 148.625 236.954Z" fill="white"/>
<path d="M148.625 247.979C148.561 248.832 148.295 249.658 147.851 250.39C147.406 251.123 146.794 251.74 146.064 252.194L98.4421 279.55C97.0258 280.36 95.881 279.785 95.881 278.271C95.9433 277.415 96.2078 276.587 96.6528 275.852C97.0978 275.118 97.7109 274.498 98.4421 274.044L146.064 246.687C147.48 245.877 148.625 246.452 148.625 247.979Z" fill="#ADAFD2"/>
<path d="M146.064 246.687L119.851 261.739V267.245L146.064 252.217C146.794 251.764 147.406 251.146 147.851 250.414C148.295 249.681 148.561 248.855 148.625 248.002C148.625 246.452 147.48 245.877 146.064 246.687Z" fill="white"/>
<path d="M150.879 265.966L93.6621 298.841C92.9204 299.325 92.3032 299.975 91.8604 300.74C91.4176 301.505 91.1616 302.362 91.1129 303.243V324.894C91.1129 326.514 92.2931 327.172 93.6739 326.362L150.879 293.487C151.624 293.005 152.245 292.356 152.69 291.59C153.135 290.825 153.392 289.966 153.44 289.084V267.48C153.417 265.813 152.272 265.132 150.879 265.966Z" fill="#494A83"/>
<path d="M148.625 275.511C148.563 276.366 148.298 277.195 147.853 277.93C147.408 278.664 146.795 279.284 146.064 279.738L98.4421 307.083C97.0258 307.893 95.881 307.318 95.881 305.803C95.9433 304.948 96.2078 304.119 96.6528 303.385C97.0978 302.65 97.7109 302.031 98.4421 301.576L146.064 274.231C147.48 273.41 148.625 273.997 148.625 275.511Z" fill="white"/>
<path d="M148.625 286.524C148.563 287.38 148.298 288.208 147.853 288.943C147.408 289.677 146.795 290.297 146.064 290.751L98.4421 318.096C97.0258 318.906 95.881 318.331 95.881 316.816C95.9433 315.961 96.2078 315.132 96.6528 314.398C97.0978 313.663 97.7109 313.044 98.4421 312.59L146.064 285.245C147.48 284.435 148.625 285.01 148.625 286.524Z" fill="#ADAFD2"/>
<path d="M146.064 285.245L110.268 305.803V311.31L146.064 290.751C146.795 290.297 147.408 289.677 147.853 288.943C148.298 288.208 148.563 287.38 148.625 286.524C148.625 285.01 147.48 284.435 146.064 285.245Z" fill="white"/>
<path d="M69.5148 147.487C66.8711 145.96 64.7232 147.346 64.7232 150.586V276.533C64.7866 278.245 65.2532 279.92 66.0854 281.42C66.9176 282.921 68.0922 284.207 69.5148 285.174C72.1585 286.7 74.3065 285.303 74.3065 282.063V156.116C74.2431 154.405 73.7765 152.733 72.9442 151.234C72.1119 149.735 70.9372 148.451 69.5148 147.487Z" fill="#494A83"/>
<path d="M69.5149 282.38C68.8094 281.896 68.2281 281.254 67.8181 280.505C67.408 279.757 67.1807 278.923 67.1544 278.071V151.772C67.1544 150.152 68.2284 149.424 69.5149 150.211C70.2206 150.697 70.8018 151.341 71.2118 152.092C71.6217 152.842 71.849 153.678 71.8753 154.532V280.83C71.9107 282.45 70.8367 283.143 69.5149 282.38Z" fill="#ADAFD2"/>
<path d="M69.5149 282.38C68.8094 281.896 68.2281 281.254 67.8181 280.505C67.408 279.757 67.1807 278.923 67.1544 278.071L67.1544 217.686L71.9461 220.446V280.83C71.9107 282.45 70.8367 283.143 69.5149 282.38Z" fill="white"/>
<path d="M55.1398 139.221C52.4843 137.695 50.3363 139.092 50.3363 142.333V268.279C50.3997 269.99 50.8664 271.663 51.6987 273.162C52.531 274.661 53.7056 275.944 55.128 276.909C57.7835 278.435 59.9315 277.049 59.9315 273.809V147.863C59.8681 146.15 59.4015 144.476 58.5693 142.975C57.737 141.474 56.5624 140.188 55.1398 139.221Z" fill="#494A83"/>
<path d="M55.128 274.126C54.4238 273.64 53.8436 272.998 53.4337 272.25C53.0238 271.502 52.7957 270.668 52.7676 269.817V143.518C52.7676 141.886 53.8416 141.17 55.128 141.957C55.8322 142.442 56.4124 143.084 56.8223 143.833C57.2322 144.581 57.4603 145.414 57.4884 146.266V272.564C57.5357 274.184 56.4617 274.889 55.128 274.126Z" fill="white"/>
<path d="M40.7529 130.967C38.1092 129.441 35.9612 130.827 35.9612 134.067V260.013C36.0219 261.727 36.4872 263.402 37.3197 264.903C38.1522 266.405 39.3283 267.69 40.7529 268.655C43.3966 270.181 45.5446 268.784 45.5446 265.543V139.597C45.4812 137.886 45.0146 136.213 44.1822 134.714C43.3499 133.215 42.1753 131.932 40.7529 130.967Z" fill="#494A83"/>
<path d="M40.753 265.86C40.0475 265.376 39.4662 264.734 39.0562 263.986C38.6462 263.237 38.4188 262.403 38.3925 261.551V135.253C38.3925 133.633 39.4665 132.905 40.753 133.691C41.4571 134.176 42.0374 134.819 42.4473 135.567C42.8571 136.315 43.0853 137.149 43.1134 138V264.31C43.1488 265.931 42.0748 266.623 40.753 265.86Z" fill="#ADAFD2"/>
<path d="M40.753 265.86C40.0475 265.376 39.4662 264.734 39.0562 263.986C38.6462 263.237 38.4188 262.403 38.3925 261.551L38.3925 163.995L43.1842 166.742V264.31C43.1488 265.931 42.0748 266.623 40.753 265.86Z" fill="white"/>
<path d="M26.3661 122.702C23.7224 121.175 21.5744 122.561 21.5744 125.813V251.759C21.6305 253.479 22.0936 255.161 22.9263 256.668C23.7589 258.176 24.9374 259.467 26.3661 260.436C29.0216 261.962 31.1578 260.577 31.1578 257.336V131.343C31.0981 129.629 30.6331 127.954 29.8005 126.452C28.968 124.951 27.7913 123.666 26.3661 122.702Z" fill="#494A83"/>
<path d="M26.3661 257.606C25.6619 257.121 25.0817 256.479 24.6718 255.73C24.2619 254.982 24.0338 254.149 24.0057 253.297V126.987C24.0057 125.367 25.0797 124.639 26.3661 125.437C27.0716 125.921 27.6528 126.563 28.0629 127.312C28.4729 128.06 28.7002 128.894 28.7265 129.746V256.045C28.7619 257.665 27.6879 258.369 26.3661 257.606Z" fill="#ADAFD2"/>
<path d="M26.3661 257.606C25.6619 257.121 25.0817 256.479 24.6718 255.73C24.2619 254.982 24.0338 254.149 24.0057 253.297L24.0056 231.976L28.7973 234.723V256.045C28.7619 257.665 27.6879 258.369 26.3661 257.606Z" fill="white"/>
<path d="M11.991 114.448C9.3355 112.921 7.1875 114.307 7.1875 117.547V243.493C7.25039 245.208 7.71801 246.883 8.55248 248.384C9.38696 249.886 10.5649 251.17 11.991 252.135C14.6347 253.661 16.7827 252.264 16.7827 249.023V123.065C16.7175 121.356 16.25 119.686 15.4177 118.189C14.5855 116.692 13.4118 115.411 11.991 114.448Z" fill="#494A83"/>
<path d="M11.991 249.34C11.2855 248.857 10.7043 248.215 10.2943 247.466C9.88423 246.717 9.65689 245.884 9.63061 245.031V118.733C9.63061 117.113 10.6928 116.385 11.991 117.171C12.6952 117.657 13.2755 118.299 13.6853 119.047C14.0952 119.796 14.3233 120.629 14.3515 121.48V247.791C14.3869 249.411 13.3129 250.104 11.991 249.34Z" fill="#ADAFD2"/>
<path d="M11.991 249.34C11.2855 248.857 10.7043 248.215 10.2943 247.466C9.88423 246.717 9.65689 245.884 9.63061 245.031L9.63059 179.141L14.4223 181.888V247.79C14.3869 249.411 13.3129 250.104 11.991 249.34Z" fill="white"/>
<path d="M72.2647 300.496L9.25287 264.299C8.07266 263.641 7.19931 264.169 7.19931 265.473V288.309C7.23893 289.016 7.44555 289.703 7.80238 290.315C8.15922 290.927 8.65617 291.446 9.25287 291.831L72.2765 328.029C73.4568 328.675 74.3183 328.158 74.3183 326.855V304.019C74.2796 303.312 74.0734 302.624 73.7165 302.012C73.3596 301.4 72.8621 300.881 72.2647 300.496Z" fill="#494A83"/>
<path d="M69.6801 307.27C69.6801 308.785 68.4999 309.36 67.119 308.55L14.3869 278.258C13.6557 277.804 13.0426 277.184 12.5976 276.45C12.1526 275.716 11.8881 274.887 11.8258 274.032C11.8258 272.517 13.006 271.942 14.3869 272.752L67.0836 303.044C67.8214 303.494 68.4414 304.112 68.8927 304.846C69.344 305.581 69.6139 306.412 69.6801 307.27Z" fill="#ADAFD2"/>
<path d="M69.6801 307.27C69.6801 308.785 68.4999 309.36 67.119 308.55L28.7619 286.512V281.006L67.0836 303.044C67.8214 303.494 68.4414 304.112 68.8927 304.846C69.344 305.581 69.6139 306.412 69.6801 307.27Z" fill="white"/>
<path d="M69.6801 318.284C69.6801 319.798 68.4999 320.374 67.119 319.564L14.3869 289.272C13.6557 288.818 13.0426 288.198 12.5976 287.463C12.1526 286.729 11.8881 285.9 11.8258 285.045C11.8258 283.53 13.006 282.955 14.3869 283.765L67.0836 314.057C67.8214 314.507 68.4414 315.125 68.8927 315.86C69.344 316.595 69.6139 317.425 69.6801 318.284Z" fill="#ADAFD2"/>
<path d="M69.6801 318.284C69.6801 319.798 68.4999 320.374 67.119 319.564L52.7322 311.345V305.839L67.119 314.057C67.8502 314.512 68.4633 315.131 68.9083 315.866C69.3533 316.6 69.6178 317.429 69.6801 318.284Z" fill="white"/>
<path d="M2.56108 86.8092L78.8858 42.9329C79.6778 42.5337 80.5531 42.3257 81.4409 42.3257C82.3288 42.3257 83.2041 42.5337 83.9961 42.9329L160.451 86.8092C160.759 86.9133 161.027 87.1108 161.216 87.374C161.406 87.6373 161.508 87.953 161.508 88.2769C161.508 88.6007 161.406 88.9164 161.216 89.1797C161.027 89.4429 160.759 89.6404 160.451 89.7445L84.0551 133.633C83.2632 134.032 82.3878 134.24 81.4999 134.24C80.6121 134.24 79.7368 134.032 78.9448 133.633L2.56102 89.768C2.24406 89.6695 1.96705 89.4729 1.77033 89.2067C1.57361 88.9406 1.46749 88.6189 1.46749 88.2886C1.46749 87.9583 1.57361 87.6366 1.77033 87.3704C1.96705 87.1043 2.24412 86.9077 2.56108 86.8092Z" fill="#434477"/>
<path d="M83.0402 123.183L142.287 89.1341C142.732 88.8435 143.103 88.4532 143.37 87.9944C143.636 87.5357 143.791 87.0213 143.821 86.4923V84.4964C143.791 83.9674 143.636 83.453 143.37 82.9943C143.103 82.5355 142.732 82.1452 142.287 81.8546L83.0402 47.8056C82.5656 47.5625 82.0396 47.4357 81.5059 47.4357C80.9722 47.4357 80.4461 47.5625 79.9716 47.8056L20.7128 81.8546C20.2656 82.1432 19.8934 82.533 19.6267 82.9921C19.36 83.4513 19.2064 83.9668 19.1786 84.4964V86.4806C19.2092 87.0095 19.364 87.5239 19.6304 87.9827C19.8968 88.4414 20.2675 88.8317 20.7128 89.1223L79.9716 123.171C80.4452 123.416 80.9707 123.545 81.5045 123.547C82.0382 123.549 82.5647 123.424 83.0402 123.183Z" fill="#343564"/>
<path d="M142.287 83.6392L83.0402 117.688C82.5657 117.931 82.0396 118.058 81.5059 118.058C80.9722 118.058 80.4462 117.931 79.9716 117.688L20.7129 83.6392C19.8631 83.1461 19.8631 82.3594 20.7129 81.878L79.9716 49.0031C80.4462 48.7601 80.9722 48.6333 81.5059 48.6333C82.0396 48.6333 82.5657 48.7601 83.0402 49.0031L142.287 81.878C143.137 82.3712 143.137 83.1461 142.287 83.6392Z" fill="#434477"/>
<path d="M81.4941 118.04V123.547C82.0285 123.559 82.557 123.434 83.0284 123.183L142.287 89.1341C142.734 88.8455 143.107 88.4555 143.373 87.9963C143.64 87.5371 143.794 87.0219 143.821 86.4923V84.5196C143.801 84.0519 143.683 83.5936 143.476 83.1733C143.269 82.753 142.977 82.3799 142.618 82.0775C143.172 82.5588 143.078 83.2516 142.334 83.639L83.0756 117.688C82.5891 117.943 82.0433 118.064 81.4941 118.04Z" fill="#505288"/>
<path d="M83.0402 106.628L123.168 83.6039C123.614 83.314 123.985 82.9239 124.251 82.465C124.518 82.0061 124.672 81.4913 124.702 80.9622V79.0132C124.669 78.4847 124.514 77.9709 124.248 77.5125C123.981 77.054 123.612 76.6634 123.168 76.3714L97.4152 61.6129C96.4268 61.0045 95.5523 60.2298 94.8305 59.3234L82.5563 42.886C82.2594 42.506 81.8359 42.2439 81.362 42.147C80.8881 42.0502 80.395 42.1249 79.9716 42.3576L39.8442 65.3701C39.3976 65.6593 39.0259 66.0493 38.7593 66.5083C38.4927 66.9673 38.3387 67.4825 38.3099 68.0118V81.0091C38.3406 81.5381 38.4953 82.0525 38.7617 82.5112C39.0281 82.97 39.3989 83.3603 39.8442 83.6509L79.9716 106.663C80.449 106.901 80.9764 107.022 81.5102 107.016C82.0439 107.009 82.5685 106.877 83.0402 106.628Z" fill="#343564"/>
<path d="M79.9716 101.157L54.2665 86.3982C53.2763 85.7683 52.4021 84.974 51.6818 84.05L39.4075 67.6126C39.2601 67.4354 39.1546 67.2276 39.0986 67.0044C39.0426 66.7813 39.0377 66.5485 39.0841 66.3232C39.1305 66.0979 39.2271 65.8858 39.3669 65.7026C39.5066 65.5193 39.6858 65.3696 39.8914 65.2644L80.0188 42.2519C80.4423 42.0191 80.9353 41.9445 81.4092 42.0413C81.8831 42.1382 82.3066 42.4003 82.6035 42.7803L94.8778 59.2177C95.5197 60.1324 96.3187 60.9274 97.2382 61.5659L123.203 76.2305C123.389 76.2918 123.551 76.4098 123.666 76.5679C123.781 76.726 123.842 76.9161 123.842 77.1111C123.842 77.3061 123.781 77.4962 123.666 77.6542C123.551 77.8123 123.389 77.9304 123.203 77.9917L83.0756 101.016C82.6081 101.287 82.0815 101.441 81.541 101.466C81.0005 101.49 80.462 101.384 79.9716 101.157Z" fill="#434477"/>
<path d="M39.9386 65.3583L80.066 42.3459C80.4895 42.1131 80.9826 42.0384 81.4565 42.1353C81.9303 42.2321 82.3539 42.4942 82.6507 42.8742L94.925 59.3117C95.3005 59.7837 95.7194 60.22 96.176 60.6149C96.176 60.6149 52.921 85.412 52.921 85.4003C52.4648 85.0092 52.046 84.5768 51.67 84.1087L39.3957 67.6713C39.2571 67.4909 39.1603 67.2822 39.1124 67.0602C39.0644 66.8382 39.0664 66.6084 39.1183 66.3873C39.1702 66.1662 39.2707 65.9592 39.4125 65.7813C39.5543 65.6034 39.734 65.4589 39.9386 65.3583Z" fill="#434477"/>
<path d="M113.395 76.7823C112.838 76.4989 112.221 76.3512 111.596 76.3512C110.97 76.3512 110.353 76.4989 109.796 76.7823C109.579 76.856 109.391 76.9952 109.258 77.1805C109.125 77.3658 109.053 77.5878 109.053 77.8156C109.053 78.0433 109.125 78.2653 109.258 78.4506C109.391 78.6359 109.579 78.7751 109.796 78.8488C110.355 79.1267 110.971 79.2714 111.596 79.2714C112.22 79.2714 112.837 79.1267 113.395 78.8488C113.612 78.7751 113.8 78.6359 113.933 78.4506C114.066 78.2653 114.138 78.0433 114.138 77.8156C114.138 77.5878 114.066 77.3658 113.933 77.1805C113.8 76.9952 113.612 76.856 113.395 76.7823Z" fill="white"/>
<path d="M106.196 80.9153C105.647 80.6398 105.041 80.4962 104.426 80.4962C103.811 80.4962 103.204 80.6398 102.655 80.9153C102.439 80.989 102.251 81.1282 102.118 81.3135C101.984 81.4988 101.913 81.7208 101.913 81.9485C101.913 82.1763 101.984 82.3983 102.118 82.5836C102.251 82.7689 102.439 82.9081 102.655 82.9818C103.206 83.252 103.812 83.3926 104.426 83.3926C105.04 83.3926 105.645 83.252 106.196 82.9818C106.413 82.9081 106.601 82.7689 106.734 82.5836C106.867 82.3983 106.939 82.1763 106.939 81.9485C106.939 81.7208 106.867 81.4988 106.734 81.3135C106.601 81.1282 106.413 80.989 106.196 80.9153Z" fill="white"/>
<path d="M98.9495 85.0362C98.3907 84.7582 97.7745 84.6135 97.1497 84.6135C96.5249 84.6135 95.9087 84.7582 95.3498 85.0362C95.1332 85.1098 94.9452 85.249 94.812 85.4343C94.6789 85.6196 94.6073 85.8416 94.6073 86.0694C94.6073 86.2971 94.6789 86.5192 94.812 86.7044C94.9452 86.8897 95.1332 87.0289 95.3498 87.1026C95.907 87.386 96.5239 87.5338 97.1497 87.5338C97.7755 87.5338 98.3923 87.386 98.9495 87.1026C99.1661 87.0289 99.3542 86.8897 99.4873 86.7044C99.6205 86.5192 99.6921 86.2971 99.6921 86.0694C99.6921 85.8416 99.6205 85.6196 99.4873 85.4343C99.3542 85.249 99.1661 85.1098 98.9495 85.0362Z" fill="#343564"/>
<path d="M91.8682 89.1691C91.3094 88.8911 90.6932 88.7464 90.0684 88.7464C89.4436 88.7464 88.8274 88.8911 88.2685 89.1691C88.0519 89.2427 87.8639 89.382 87.7307 89.5672C87.5976 89.7525 87.526 89.9745 87.526 90.2023C87.526 90.43 87.5976 90.6521 87.7307 90.8373C87.8639 91.0226 88.0519 91.1618 88.2685 91.2355C88.8257 91.5189 89.4426 91.6667 90.0684 91.6667C90.6942 91.6667 91.311 91.5189 91.8682 91.2355C92.0848 91.1618 92.2729 91.0226 92.406 90.8373C92.5392 90.6521 92.6108 90.43 92.6108 90.2023C92.6108 89.9745 92.5392 89.7525 92.406 89.5672C92.2729 89.382 92.0848 89.2427 91.8682 89.1691Z" fill="#343564"/>
<path d="M106.196 76.1717C104.795 76.1717 103.659 75.5199 103.659 74.7158C103.659 73.9117 104.795 73.2599 106.196 73.2599C107.597 73.2599 108.734 73.9117 108.734 74.7158C108.734 75.5199 107.597 76.1717 106.196 76.1717Z" fill="white"/>
<path d="M100.802 77.8157C100.253 77.5401 99.6471 77.3966 99.0322 77.3966C98.4172 77.3966 97.8108 77.5401 97.2618 77.8157C97.0452 77.8894 96.8571 78.0286 96.724 78.2139C96.5909 78.3991 96.5193 78.6212 96.5193 78.8489C96.5193 79.0767 96.5909 79.2987 96.724 79.484C96.8571 79.6692 97.0452 79.8085 97.2618 79.8821C97.8124 80.1524 98.4182 80.293 99.0322 80.293C99.6461 80.293 100.252 80.1524 100.802 79.8821C101.806 79.3068 101.806 78.3793 100.802 77.8157Z" fill="#343564"/>
<path d="M91.821 84.4375C90.4196 84.4375 89.2835 83.7856 89.2835 82.9816C89.2835 82.1775 90.4196 81.5257 91.821 81.5257C93.2224 81.5257 94.3585 82.1775 94.3585 82.9816C94.3585 83.7856 93.2224 84.4375 91.821 84.4375Z" fill="white"/>
<path d="M86.4274 86.0695C85.8763 85.801 85.2708 85.6614 84.6571 85.6614C84.0434 85.6614 83.4379 85.801 82.8868 86.0695C82.6701 86.1432 82.4821 86.2824 82.3489 86.4677C82.2158 86.653 82.1442 86.875 82.1442 87.1028C82.1442 87.3305 82.2158 87.5525 82.3489 87.7378C82.4821 87.9231 82.6701 88.0623 82.8868 88.136C83.4363 88.4097 84.0425 88.5523 84.6571 88.5523C85.2717 88.5523 85.8779 88.4097 86.4274 88.136C86.644 88.0623 86.8321 87.9231 86.9652 87.7378C87.0984 87.5525 87.17 87.3305 87.17 87.1028C87.17 86.875 87.0984 86.653 86.9652 86.4677C86.8321 86.2824 86.644 86.1432 86.4274 86.0695Z" fill="#343564"/>
<path d="M102.608 70.5828C102.057 70.3143 101.452 70.1747 100.838 70.1747C100.224 70.1747 99.6187 70.3143 99.0676 70.5828C98.8509 70.6565 98.6629 70.7957 98.5297 70.981C98.3966 71.1662 98.325 71.3883 98.325 71.616C98.325 71.8438 98.3966 72.0658 98.5297 72.2511C98.6629 72.4364 98.8509 72.5756 99.0676 72.6492C99.6171 72.923 100.223 73.0656 100.838 73.0656C101.453 73.0656 102.059 72.923 102.608 72.6492C102.825 72.5756 103.013 72.4364 103.146 72.2511C103.279 72.0658 103.351 71.8438 103.351 71.616C103.351 71.3883 103.279 71.1662 103.146 70.981C103.013 70.7957 102.825 70.6565 102.608 70.5828Z" fill="#343564"/>
<path d="M95.4088 74.7158C94.8598 74.4402 94.2535 74.2967 93.6385 74.2967C93.0236 74.2967 92.4172 74.4402 91.8682 74.7158C91.6516 74.7895 91.4635 74.9287 91.3304 75.114C91.1972 75.2992 91.1256 75.5213 91.1256 75.749C91.1256 75.9768 91.1972 76.1988 91.3304 76.3841C91.4635 76.5694 91.6516 76.7086 91.8682 76.7822C92.4188 77.0525 93.0245 77.1931 93.6385 77.1931C94.2525 77.1931 94.8582 77.0525 95.4088 76.7822C95.6255 76.7086 95.8135 76.5694 95.9467 76.3841C96.0798 76.1988 96.1514 75.9768 96.1514 75.749C96.1514 75.5213 96.0798 75.2992 95.9467 75.114C95.8135 74.9287 95.6255 74.7895 95.4088 74.7158Z" fill="white"/>
<path d="M88.2214 78.8489C87.6718 78.5751 87.0657 78.4326 86.451 78.4326C85.8364 78.4326 85.2303 78.5751 84.6807 78.8489C84.4641 78.9225 84.276 79.0618 84.1429 79.247C84.0097 79.4323 83.9382 79.6543 83.9382 79.8821C83.9382 80.1098 84.0097 80.3319 84.1429 80.5172C84.276 80.7024 84.4641 80.8416 84.6807 80.9153C85.2318 81.1839 85.8374 81.3235 86.451 81.3235C87.0647 81.3235 87.6703 81.1839 88.2214 80.9153C88.438 80.8416 88.626 80.7024 88.7592 80.5172C88.8923 80.3319 88.9639 80.1098 88.9639 79.8821C88.9639 79.6543 88.8923 79.4323 88.7592 79.247C88.626 79.0618 88.438 78.9225 88.2214 78.8489Z" fill="#343564"/>
<path d="M84.5863 93.2198C84.0291 92.9364 83.4122 92.7886 82.7864 92.7886C82.1606 92.7886 81.5438 92.9364 80.9866 93.2198C80.77 93.2934 80.5819 93.4326 80.4488 93.6179C80.3156 93.8032 80.244 94.0252 80.244 94.253C80.244 94.4807 80.3156 94.7028 80.4488 94.888C80.5819 95.0733 80.77 95.2125 80.9866 95.2862C81.5454 95.5642 82.1616 95.7089 82.7864 95.7089C83.4112 95.7089 84.0274 95.5642 84.5863 95.2862C84.8029 95.2125 84.9909 95.0733 85.1241 94.888C85.2572 94.7028 85.3288 94.4807 85.3288 94.253C85.3288 94.0252 85.2572 93.8032 85.1241 93.6179C84.9909 93.4326 84.8029 93.2934 84.5863 93.2198Z" fill="white"/>
<path d="M77.3987 92.609C75.9973 92.609 74.8613 91.9572 74.8613 91.1532C74.8613 90.3491 75.9973 89.6973 77.3987 89.6973C78.8001 89.6973 79.9362 90.3491 79.9362 91.1532C79.9362 91.9572 78.8001 92.609 77.3987 92.609Z" fill="#343564"/>
<path d="M81.0338 82.9817C80.4842 82.7079 79.8781 82.5654 79.2635 82.5654C78.6489 82.5654 78.0427 82.7079 77.4931 82.9817C77.2765 83.0554 77.0885 83.1946 76.9553 83.3799C76.8222 83.5651 76.7506 83.7872 76.7506 84.0149C76.7506 84.2427 76.8222 84.4647 76.9553 84.65C77.0885 84.8353 77.2765 84.9745 77.4931 85.0481C78.0443 85.3167 78.6498 85.4563 79.2635 85.4563C79.8771 85.4563 80.4827 85.3167 81.0338 85.0481C81.2504 84.9745 81.4385 84.8353 81.5716 84.65C81.7048 84.4647 81.7764 84.2427 81.7764 84.0149C81.7764 83.7872 81.7048 83.5651 81.5716 83.3799C81.4385 83.1946 81.2504 83.0554 81.0338 82.9817Z" fill="#343564"/>
<path d="M97.2146 67.4952C96.6574 67.2118 96.0406 67.064 95.4148 67.064C94.789 67.064 94.1721 67.2118 93.6149 67.4952C93.3983 67.5689 93.2103 67.7081 93.0771 67.8934C92.944 68.0786 92.8724 68.3007 92.8724 68.5284C92.8724 68.7562 92.944 68.9782 93.0771 69.1635C93.2103 69.3488 93.3983 69.488 93.6149 69.5616C94.1738 69.8396 94.79 69.9843 95.4148 69.9843C96.0396 69.9843 96.6558 69.8396 97.2146 69.5616C97.4312 69.488 97.6193 69.3488 97.7524 69.1635C97.8856 68.9782 97.9572 68.7562 97.9572 68.5284C97.9572 68.3007 97.8856 68.0786 97.7524 67.8934C97.6193 67.7081 97.4312 67.5689 97.2146 67.4952Z" fill="white"/>
<path d="M88.2213 74.1053C86.8199 74.1053 85.6838 73.4535 85.6838 72.6494C85.6838 71.8453 86.8199 71.1935 88.2213 71.1935C89.6227 71.1935 90.7588 71.8453 90.7588 72.6494C90.7588 73.4535 89.6227 74.1053 88.2213 74.1053Z" fill="#343564"/>
<path d="M82.8277 75.749C82.2771 75.4788 81.6714 75.3382 81.0574 75.3382C80.4434 75.3382 79.8377 75.4788 79.2871 75.749C79.0705 75.8227 78.8824 75.9619 78.7493 76.1472C78.6161 76.3325 78.5445 76.5545 78.5445 76.7823C78.5445 77.01 78.6161 77.2321 78.7493 77.4173C78.8824 77.6026 79.0705 77.7418 79.2871 77.8155C79.8361 78.091 80.4425 78.2346 81.0574 78.2346C81.6724 78.2346 82.2787 78.091 82.8277 77.8155C83.0444 77.7418 83.2324 77.6026 83.3656 77.4173C83.4987 77.2321 83.5703 77.01 83.5703 76.7823C83.5703 76.5545 83.4987 76.3325 83.3656 76.1472C83.2324 75.9619 83.0444 75.8227 82.8277 75.749Z" fill="white"/>
<path d="M73.8462 82.371C72.4448 82.371 71.3088 81.7191 71.3088 80.9151C71.3088 80.111 72.4448 79.4592 73.8462 79.4592C75.2477 79.4592 76.3837 80.111 76.3837 80.9151C76.3837 81.7191 75.2477 82.371 73.8462 82.371Z" fill="#343564"/>
<path d="M73.7991 87.0322C73.2419 86.7488 72.625 86.601 71.9992 86.601C71.3734 86.601 70.7566 86.7488 70.1994 87.0322C69.9813 87.1027 69.7912 87.24 69.6564 87.4246C69.5216 87.6091 69.449 87.8314 69.449 88.0595C69.449 88.2877 69.5216 88.5099 69.6564 88.6945C69.7912 88.879 69.9813 89.0164 70.1994 89.0869C70.7566 89.3703 71.3734 89.518 71.9992 89.518C72.625 89.518 73.2419 89.3703 73.7991 89.0869C74.0172 89.0164 74.2072 88.879 74.342 88.6945C74.4768 88.5099 74.5494 88.2877 74.5494 88.0595C74.5494 87.8314 74.4768 87.6091 74.342 87.4246C74.2072 87.24 74.0172 87.1027 73.7991 87.0322Z" fill="white"/>
<path d="M68.4055 83.9327C67.8564 83.6571 67.2501 83.5136 66.6351 83.5136C66.0202 83.5136 65.4138 83.6571 64.8648 83.9327C63.8616 84.4963 63.8616 85.4238 64.8648 85.9991C65.4154 86.2694 66.0212 86.41 66.6351 86.41C67.2491 86.41 67.8549 86.2694 68.4055 85.9991C68.6221 85.9255 68.8101 85.7863 68.9433 85.601C69.0764 85.4157 69.148 85.1937 69.148 84.9659C69.148 84.7382 69.0764 84.5161 68.9433 84.3309C68.8101 84.1456 68.6221 84.0064 68.4055 83.9327Z" fill="#343564"/>
<path d="M81.4115 101.521V107.016C81.9722 107.042 82.5302 106.921 83.0283 106.663L123.156 83.6391C123.603 83.3506 123.975 82.9607 124.242 82.5016C124.509 82.0424 124.662 81.5269 124.69 80.9974V79.0131C124.664 78.5419 124.539 78.0813 124.323 77.6608C124.108 77.2403 123.807 76.8691 123.439 76.571C123.994 77.0524 123.899 77.7451 123.156 78.1325L83.0283 101.157C82.5313 101.418 81.9733 101.544 81.4115 101.521Z" fill="#505288"/>
<path d="M89.5077 58.6305C89.3108 58.3759 89.0284 58.2001 88.7121 58.1355C88.3957 58.0708 88.0665 58.1215 87.7846 58.2783L52.921 78.2616C52.7909 78.3335 52.678 78.4327 52.5903 78.5523C52.5025 78.6718 52.442 78.809 52.4128 78.9542C52.3836 79.0993 52.3865 79.2491 52.4213 79.3931C52.456 79.537 52.5218 79.6718 52.6141 79.7879C52.8109 80.0425 53.0924 80.2191 53.4082 80.2858C53.7241 80.3525 54.0534 80.305 54.3372 80.1519L89.2127 60.1686C89.3422 60.0945 89.4541 59.9934 89.5407 59.8723C89.6273 59.7512 89.6867 59.6129 89.7147 59.4669C89.7427 59.3209 89.7387 59.1706 89.703 59.0262C89.6673 58.8819 89.6007 58.7469 89.5077 58.6305Z" fill="#ADAFD2"/>
<path d="M89.5077 58.6305C89.3108 58.3759 89.0284 58.2001 88.7121 58.1355C88.3957 58.0708 88.0665 58.1215 87.7846 58.2783L61.8198 73.166L63.2597 75.1032L89.2245 60.2156C89.3606 60.1413 89.4783 60.0376 89.5688 59.9121C89.6593 59.7867 89.7204 59.6426 89.7476 59.4905C89.7748 59.3385 89.7673 59.1823 89.7258 59.0335C89.6843 58.8846 89.6098 58.7469 89.5077 58.6305Z" fill="white"/>
<path d="M86.6398 54.7797C86.4429 54.525 86.1605 54.3493 85.8441 54.2846C85.5278 54.22 85.1986 54.2707 84.9167 54.4275L50.0413 74.4577C49.9102 74.5285 49.7963 74.627 49.7074 74.7461C49.6185 74.8652 49.5567 75.0021 49.5264 75.1474C49.496 75.2926 49.4979 75.4427 49.5318 75.5872C49.5656 75.7317 49.6308 75.8671 49.7226 75.984C49.9245 76.2357 50.2087 76.4088 50.5258 76.4732C50.8429 76.5376 51.1727 76.4891 51.4575 76.3362L86.3212 56.3178C86.4525 56.2457 86.5666 56.1461 86.6556 56.026C86.7445 55.9058 86.8063 55.7679 86.8366 55.6217C86.8669 55.4756 86.8649 55.3246 86.831 55.1793C86.797 55.0339 86.7318 54.8976 86.6398 54.7797Z" fill="#ADAFD2"/>
<path d="M86.6398 54.7797C86.4429 54.525 86.1605 54.3493 85.8441 54.2846C85.5278 54.22 85.1986 54.2707 84.9167 54.4275L76.2539 59.4057L77.7056 61.2842L86.3684 56.3178C86.4961 56.2416 86.6058 56.139 86.6901 56.017C86.7744 55.8949 86.8314 55.7562 86.8571 55.6104C86.8829 55.4645 86.8768 55.3148 86.8393 55.1715C86.8018 55.0282 86.7338 54.8946 86.6398 54.7797Z" fill="white"/>
<path d="M83.7601 50.9404C83.5632 50.6858 83.2808 50.51 82.9644 50.4454C82.6481 50.3807 82.3189 50.4314 82.037 50.5882L47.1615 70.6184C47.0302 70.6905 46.9161 70.7901 46.8271 70.9102C46.7382 71.0304 46.6764 71.1683 46.6461 71.3145C46.6159 71.4606 46.6178 71.6116 46.6517 71.7569C46.6857 71.9023 46.7509 72.0386 46.8429 72.1565C47.0427 72.4072 47.325 72.5799 47.64 72.6444C47.9551 72.7088 48.2829 72.6608 48.566 72.5087L83.4414 52.4668C83.5725 52.3959 83.6864 52.2975 83.7753 52.1784C83.8642 52.0593 83.926 51.9223 83.9563 51.7771C83.9867 51.6318 83.9848 51.4817 83.9509 51.3372C83.917 51.1927 83.8519 51.0573 83.7601 50.9404Z" fill="#ADAFD2"/>
<path d="M83.7601 50.9404C83.5632 50.6858 83.2808 50.51 82.9644 50.4454C82.6481 50.3807 82.3189 50.4314 82.037 50.5882L63.8734 60.9908L65.3133 62.9163L83.4768 52.5255C83.6147 52.4528 83.7341 52.3499 83.8259 52.2245C83.9178 52.099 83.9797 51.9545 84.007 51.8017C84.0343 51.6489 84.0263 51.4919 83.9835 51.3427C83.9407 51.1935 83.8643 51.0559 83.7601 50.9404Z" fill="white"/>
<path d="M80.8804 47.0892C80.6836 46.8346 80.402 46.6581 80.0862 46.5914C79.7704 46.5247 79.441 46.5721 79.1572 46.7252L44.2346 66.7085C44.1042 66.7816 43.9912 66.882 43.9034 67.0026C43.8156 67.1232 43.755 67.2613 43.7259 67.4074C43.6967 67.5535 43.6997 67.7041 43.7345 67.8489C43.7694 67.9938 43.8353 68.1294 43.9277 68.2466C44.1246 68.5013 44.407 68.677 44.7234 68.7416C45.0397 68.8063 45.3689 68.7556 45.6508 68.5988L80.5617 48.6156C80.6927 48.5447 80.8067 48.4463 80.8956 48.3272C80.9845 48.2081 81.0463 48.0711 81.0766 47.9258C81.1069 47.7806 81.1051 47.6305 81.0712 47.486C81.0373 47.3415 80.9722 47.2061 80.8804 47.0892Z" fill="#ADAFD2"/>
<path d="M80.8804 47.0892C80.6836 46.8346 80.402 46.6581 80.0862 46.5914C79.7704 46.5247 79.441 46.5721 79.1572 46.7252L47.492 64.9121L48.9436 66.8377L80.5617 48.6156C80.6927 48.5447 80.8067 48.4463 80.8956 48.3272C80.9845 48.2081 81.0463 48.0711 81.0766 47.9258C81.1069 47.7806 81.1051 47.6305 81.0712 47.486C81.0373 47.3415 80.9722 47.2061 80.8804 47.0892Z" fill="white"/>
<path d="M174.46 119.936L98.5336 163.955C97.7951 164.439 97.1808 165.092 96.7405 165.859C96.3003 166.627 96.0466 167.488 96 168.372V377.95C96.0484 378.834 96.3029 379.694 96.743 380.461C97.183 381.228 97.7964 381.881 98.5336 382.367L174.46 426.386C175.248 426.786 176.118 426.995 177 426.995C177.882 426.995 178.752 426.786 179.539 426.386L255.455 382.367C256.195 381.884 256.812 381.232 257.254 380.464C257.697 379.697 257.952 378.835 258 377.95V168.372C257.954 167.486 257.699 166.624 257.257 165.856C256.814 165.088 256.197 164.437 255.455 163.955L179.598 119.936C178.803 119.526 177.923 119.312 177.029 119.312C176.136 119.312 175.255 119.526 174.46 119.936Z" fill="#505288"/>
<path d="M258 168.361L258 377.95C257.952 378.834 257.697 379.694 257.257 380.461C256.817 381.229 256.204 381.881 255.466 382.367L179.598 426.386C178.821 426.808 177.948 427.019 177.065 426.999V211.52C177.945 211.54 178.816 211.338 179.598 210.931L255.525 166.912L257.12 165.581C257.667 166.406 257.972 167.37 258 168.361Z" fill="#343564"/>
<path d="M108.047 188.998L164.912 221.98C165.649 222.466 166.262 223.119 166.702 223.886C167.142 224.653 167.397 225.513 167.446 226.397V248.142C167.446 249.767 166.273 250.427 164.901 249.614L108.047 216.632C107.306 216.149 106.689 215.497 106.247 214.73C105.805 213.962 105.549 213.1 105.501 212.215V190.47C105.525 188.845 106.662 188.185 108.047 188.998Z" fill="#494A83"/>
<path d="M110.287 198.575C110.351 199.431 110.614 200.26 111.057 200.994C111.499 201.729 112.107 202.349 112.832 202.803L160.162 230.249C161.569 231.062 162.707 230.485 162.707 228.965C162.645 228.107 162.382 227.276 161.94 226.539C161.498 225.802 160.889 225.18 160.162 224.725L112.832 197.279C111.425 196.466 110.287 197.043 110.287 198.575Z" fill="white"/>
<path d="M110.287 209.623C110.351 210.479 110.614 211.308 111.057 212.043C111.499 212.778 112.107 213.397 112.832 213.852L160.162 241.298C161.569 242.111 162.707 241.533 162.707 240.014C162.645 239.156 162.382 238.324 161.94 237.588C161.498 236.851 160.889 236.229 160.162 235.773L112.832 208.328C111.425 207.515 110.287 208.092 110.287 209.623Z" fill="#ADAFD2"/>
<path d="M112.832 208.328L138.884 223.44V228.965L112.832 213.852C112.107 213.397 111.499 212.778 111.057 212.043C110.614 211.308 110.351 210.479 110.287 209.623C110.287 208.092 111.425 207.515 112.832 208.328Z" fill="white"/>
<path d="M108.047 227.669L164.912 260.651C165.65 261.137 166.263 261.79 166.703 262.557C167.143 263.324 167.398 264.185 167.446 265.069V286.79C167.446 288.415 166.273 289.075 164.901 288.262L108.047 255.28C107.306 254.797 106.689 254.145 106.247 253.378C105.805 252.61 105.549 251.748 105.501 250.863V229.142C105.525 227.516 106.662 226.857 108.047 227.669Z" fill="#494A83"/>
<path d="M110.287 237.246C110.349 238.104 110.612 238.935 111.054 239.672C111.496 240.409 112.106 241.031 112.832 241.486L160.162 268.92C161.569 269.733 162.707 269.156 162.707 267.636C162.645 266.778 162.382 265.947 161.94 265.21C161.498 264.473 160.889 263.852 160.162 263.396L112.832 235.962C111.425 235.149 110.287 235.726 110.287 237.246Z" fill="white"/>
<path d="M110.287 248.295C110.349 249.153 110.612 249.984 111.054 250.721C111.496 251.458 112.106 252.08 112.832 252.535L160.162 279.969C161.569 280.794 162.707 280.205 162.707 278.685C162.645 277.827 162.382 276.996 161.94 276.259C161.498 275.522 160.889 274.901 160.162 274.445L112.832 247.011C111.425 246.198 110.287 246.775 110.287 248.295Z" fill="#ADAFD2"/>
<path d="M112.832 247.011L153.171 270.393V275.917L112.832 252.535C112.106 252.08 111.496 251.458 111.054 250.721C110.612 249.984 110.349 249.153 110.287 248.295C110.287 246.775 111.425 246.198 112.832 247.011Z" fill="white"/>
<path d="M108.047 266.294L164.912 299.276C165.65 299.761 166.263 300.414 166.703 301.181C167.143 301.949 167.398 302.809 167.446 303.693V325.426C167.446 327.051 166.273 327.711 164.901 326.898L108.047 293.975C107.306 293.492 106.689 292.84 106.247 292.073C105.805 291.305 105.549 290.443 105.501 289.558V267.813C105.525 266.188 106.662 265.528 108.047 266.294Z" fill="#494A83"/>
<path d="M110.287 275.917C110.349 276.776 110.612 277.607 111.054 278.344C111.496 279.081 112.106 279.702 112.832 280.158L160.162 307.604C161.569 308.416 162.707 307.839 162.707 306.308C162.644 305.452 162.38 304.623 161.938 303.888C161.495 303.154 160.887 302.534 160.162 302.079L112.832 274.633C111.425 273.821 110.287 274.398 110.287 275.917Z" fill="white"/>
<path d="M110.287 286.978C110.351 287.834 110.614 288.663 111.057 289.398C111.499 290.132 112.107 290.752 112.832 291.207L160.162 318.652C161.569 319.465 162.707 318.888 162.707 317.357C162.644 316.501 162.38 315.672 161.938 314.937C161.495 314.202 160.887 313.582 160.162 313.128L112.832 285.682C111.425 284.869 110.287 285.446 110.287 286.978Z" fill="#ADAFD2"/>
<path d="M112.832 285.682L129.348 295.259V300.783L112.832 291.207C112.107 290.752 111.499 290.132 111.057 289.398C110.614 288.663 110.351 287.834 110.287 286.978C110.287 285.446 111.425 284.869 112.832 285.682Z" fill="white"/>
<path d="M108.047 305.024L164.912 338.006C165.65 338.491 166.263 339.144 166.703 339.911C167.143 340.679 167.398 341.539 167.446 342.423V364.168C167.446 365.793 166.273 366.453 164.901 365.64L108.047 332.658C107.306 332.175 106.689 331.523 106.247 330.756C105.805 329.988 105.549 329.126 105.501 328.241V306.496C105.525 304.871 106.662 304.211 108.047 305.024Z" fill="#494A83"/>
<path d="M110.287 314.589C110.351 315.445 110.614 316.274 111.057 317.008C111.499 317.743 112.107 318.363 112.832 318.817L160.162 346.263C161.569 347.076 162.707 346.499 162.707 344.967C162.644 344.111 162.38 343.282 161.938 342.548C161.495 341.813 160.887 341.193 160.162 340.739L112.832 313.293C111.425 312.492 110.287 313.069 110.287 314.589Z" fill="white"/>
<path d="M110.287 325.65C110.351 326.506 110.614 327.335 111.057 328.069C111.499 328.804 112.107 329.424 112.832 329.878L160.162 357.324C161.569 358.137 162.707 357.56 162.707 356.04C162.645 355.182 162.382 354.351 161.94 353.614C161.498 352.877 160.889 352.255 160.162 351.8L112.832 324.354C111.425 323.541 110.287 324.118 110.287 325.65Z" fill="#ADAFD2"/>
<path d="M112.832 324.354L138.884 339.455V344.979L112.832 329.902C112.107 329.447 111.499 328.827 111.057 328.092C110.614 327.358 110.351 326.529 110.287 325.673C110.287 324.118 111.425 323.541 112.832 324.354Z" fill="white"/>
<path d="M108.047 343.695L164.912 376.677C165.65 377.163 166.263 377.816 166.703 378.583C167.143 379.35 167.398 380.21 167.446 381.094V402.815C167.446 404.441 166.273 405.101 164.901 404.288L108.047 371.306C107.306 370.823 106.689 370.171 106.247 369.403C105.805 368.636 105.549 367.774 105.501 366.889V345.215C105.525 343.542 106.662 342.859 108.047 343.695Z" fill="#494A83"/>
<path d="M110.287 353.272C110.349 354.13 110.612 354.961 111.054 355.698C111.496 356.435 112.106 357.057 112.832 357.512L160.162 384.946C161.569 385.759 162.707 385.182 162.707 383.662C162.645 382.804 162.382 381.973 161.94 381.236C161.498 380.499 160.889 379.878 160.162 379.422L112.832 351.988C111.425 351.163 110.287 351.752 110.287 353.272Z" fill="white"/>
<path d="M110.287 364.321C110.349 365.179 110.612 366.01 111.054 366.747C111.496 367.484 112.106 368.106 112.832 368.561L160.162 395.995C161.569 396.808 162.707 396.231 162.707 394.711C162.645 393.853 162.382 393.022 161.94 392.285C161.498 391.548 160.889 390.927 160.162 390.471L112.832 363.037C111.425 362.224 110.287 362.801 110.287 364.321Z" fill="#ADAFD2"/>
<path d="M112.832 363.037L148.409 383.663V389.187L112.832 368.561C112.106 368.106 111.496 367.484 111.054 366.747C110.612 366.01 110.349 365.179 110.287 364.321C110.287 362.801 111.425 362.224 112.832 363.037Z" fill="white"/>
<path d="M188.912 224.83C191.539 223.299 193.674 224.689 193.674 227.94V354.297C193.611 356.015 193.147 357.695 192.32 359.2C191.493 360.706 190.325 361.996 188.912 362.966C186.284 364.497 184.149 363.096 184.149 359.845V233.488C184.212 231.771 184.676 230.093 185.503 228.589C186.331 227.086 187.498 225.798 188.912 224.83Z" fill="#494A83"/>
<path d="M188.912 360.163C189.613 359.677 190.19 359.033 190.598 358.282C191.005 357.531 191.231 356.695 191.258 355.84V229.13C191.258 227.504 190.19 226.774 188.912 227.563C188.21 228.051 187.633 228.698 187.225 229.45C186.818 230.203 186.592 231.042 186.566 231.898V358.608C186.53 360.233 187.598 360.928 188.912 360.163Z" fill="#ADAFD2"/>
<path d="M188.912 360.163C189.613 359.677 190.19 359.033 190.598 358.282C191.005 357.531 191.231 356.695 191.258 355.84L191.258 295.259L186.495 298.027V358.608C186.53 360.233 187.598 360.928 188.912 360.163Z" fill="white"/>
<path d="M203.198 216.538C205.838 215.007 207.973 216.408 207.973 219.66V346.016C207.91 347.733 207.446 349.411 206.619 350.915C205.791 352.418 204.624 353.706 203.21 354.674C200.571 356.205 198.436 354.815 198.436 351.564V225.208C198.499 223.489 198.963 221.809 199.79 220.304C200.617 218.798 201.785 217.508 203.198 216.538Z" fill="#494A83"/>
<path d="M203.21 351.882C203.91 351.395 204.487 350.751 204.894 350C205.301 349.249 205.528 348.413 205.556 347.559V220.849C205.556 219.212 204.489 218.493 203.21 219.282C202.51 219.769 201.934 220.414 201.526 221.164C201.119 221.915 200.892 222.751 200.864 223.605V350.315C200.817 351.941 201.885 352.647 203.21 351.882Z" fill="white"/>
<path d="M217.497 208.257C220.125 206.726 222.259 208.116 222.259 211.367V337.723C222.199 339.442 221.737 341.123 220.909 342.629C220.082 344.135 218.913 345.425 217.497 346.393C214.87 347.924 212.735 346.522 212.735 343.271V216.915C212.798 215.198 213.262 213.52 214.089 212.016C214.916 210.512 216.083 209.225 217.497 208.257Z" fill="#494A83"/>
<path d="M217.497 343.589C218.198 343.104 218.776 342.46 219.183 341.709C219.591 340.958 219.817 340.121 219.843 339.266V212.557C219.843 210.931 218.776 210.201 217.497 210.99C216.797 211.477 216.221 212.121 215.813 212.872C215.406 213.623 215.179 214.459 215.151 215.313V342.035C215.116 343.66 216.183 344.355 217.497 343.589Z" fill="#ADAFD2"/>
<path d="M217.497 343.589C218.198 343.104 218.776 342.46 219.183 341.709C219.591 340.958 219.817 340.121 219.843 339.266L219.843 241.392L215.081 244.149V342.035C215.116 343.66 216.183 344.355 217.497 343.589Z" fill="white"/>
<path d="M231.796 199.965C234.423 198.433 236.558 199.823 236.558 203.086V329.443C236.502 331.167 236.042 332.855 235.214 334.367C234.387 335.88 233.216 337.175 231.796 338.147C229.156 339.679 227.033 338.289 227.033 335.038V208.634C227.093 206.915 227.555 205.234 228.382 203.728C229.21 202.221 230.379 200.932 231.796 199.965Z" fill="#494A83"/>
<path d="M231.796 335.309C232.496 334.822 233.072 334.177 233.48 333.427C233.887 332.676 234.114 331.84 234.142 330.986V204.264C234.142 202.638 233.074 201.908 231.796 202.709C231.094 203.194 230.517 203.839 230.109 204.59C229.702 205.341 229.476 206.177 229.45 207.032V333.742C229.415 335.367 230.482 336.074 231.796 335.309Z" fill="#ADAFD2"/>
<path d="M231.796 335.309C232.496 334.822 233.072 334.177 233.48 333.427C233.887 332.676 234.114 331.84 234.142 330.986L234.142 309.594L229.379 312.351V333.742C229.415 335.367 230.482 336.074 231.796 335.309Z" fill="white"/>
<path d="M246.083 191.684C248.722 190.152 250.857 191.542 250.857 194.793V321.15C250.794 322.87 250.329 324.551 249.5 326.057C248.671 327.563 247.5 328.852 246.083 329.819C243.455 331.351 241.32 329.949 241.32 326.698V200.33C241.385 198.615 241.85 196.939 242.677 195.437C243.504 193.936 244.67 192.65 246.083 191.684Z" fill="#494A83"/>
<path d="M246.083 327.016C246.784 326.53 247.361 325.886 247.769 325.135C248.176 324.384 248.402 323.548 248.428 322.693V195.983C248.428 194.357 247.373 193.627 246.083 194.416C245.383 194.903 244.806 195.548 244.399 196.298C243.991 197.049 243.765 197.885 243.737 198.739V325.461C243.701 327.086 244.769 327.781 246.083 327.016Z" fill="#ADAFD2"/>
<path d="M246.083 327.016C246.784 326.53 247.361 325.886 247.769 325.135C248.176 324.384 248.402 323.548 248.428 322.693V256.587L243.666 259.344V325.461C243.701 327.086 244.769 327.781 246.083 327.016Z" fill="white"/>
<path d="M186.179 378.338L248.804 342.023C249.977 341.363 250.845 341.893 250.845 343.201V366.111C250.805 366.82 250.6 367.51 250.245 368.124C249.891 368.738 249.397 369.259 248.804 369.645L186.167 405.961C184.994 406.609 184.138 406.09 184.138 404.783V381.872C184.176 381.163 184.381 380.473 184.736 379.859C185.09 379.245 185.585 378.724 186.179 378.338Z" fill="#494A83"/>
<path d="M188.747 385.135C188.747 386.654 189.92 387.231 191.293 386.418L243.701 356.028C244.428 355.572 245.037 354.951 245.48 354.214C245.922 353.477 246.185 352.645 246.247 351.787C246.247 350.268 245.074 349.691 243.701 350.503L191.328 380.894C190.595 381.346 189.979 381.966 189.53 382.703C189.081 383.44 188.813 384.273 188.747 385.135Z" fill="#ADAFD2"/>
<path d="M188.747 385.135C188.747 386.654 189.92 387.231 191.293 386.418L229.415 364.309V358.784L191.328 380.894C190.595 381.346 189.979 381.966 189.53 382.703C189.081 383.44 188.813 384.273 188.747 385.135Z" fill="white"/>
<path d="M188.747 396.184C188.747 397.703 189.92 398.281 191.293 397.468L243.701 367.077C244.428 366.621 245.037 366 245.48 365.263C245.922 364.526 246.185 363.695 246.247 362.837C246.247 361.317 245.074 360.74 243.701 361.553L191.328 391.943C190.595 392.395 189.979 393.015 189.53 393.752C189.081 394.489 188.813 395.323 188.747 396.184Z" fill="#ADAFD2"/>
<path d="M188.747 396.184C188.747 397.703 189.92 398.281 191.293 397.468L205.591 389.222V383.698L191.293 391.943C190.566 392.399 189.957 393.021 189.514 393.758C189.072 394.494 188.809 395.326 188.747 396.184Z" fill="white"/>
<path d="M255.455 163.955L179.598 119.936C178.811 119.535 177.941 119.327 177.059 119.327C176.176 119.327 175.306 119.535 174.519 119.936L98.5336 163.955C98.2272 164.06 97.9612 164.258 97.7727 164.522C97.5842 164.786 97.4829 165.103 97.4829 165.428C97.4829 165.753 97.5842 166.069 97.7727 166.333C97.9612 166.597 98.2273 166.796 98.5337 166.9L174.461 210.931C175.248 211.331 176.118 211.54 177 211.54C177.882 211.54 178.752 211.331 179.54 210.931L255.455 166.924C255.77 166.825 256.045 166.627 256.241 166.361C256.436 166.094 256.542 165.771 256.542 165.439C256.542 165.108 256.436 164.785 256.241 164.518C256.045 164.251 255.77 164.054 255.455 163.955Z" fill="#434477"/>
<path d="M175.469 200.448L116.586 166.288C116.143 165.996 115.775 165.604 115.51 165.144C115.245 164.684 115.091 164.168 115.061 163.637V161.635C115.091 161.104 115.245 160.588 115.51 160.128C115.775 159.668 116.143 159.276 116.586 158.984L175.469 124.825C175.941 124.581 176.464 124.453 176.994 124.453C177.525 124.453 178.047 124.581 178.519 124.825L237.414 158.984C237.859 159.274 238.229 159.665 238.494 160.126C238.759 160.586 238.911 161.103 238.939 161.635V163.625C238.909 164.156 238.755 164.672 238.49 165.132C238.225 165.593 237.857 165.984 237.414 166.276L178.519 200.436C178.048 200.681 177.526 200.811 176.996 200.813C176.465 200.815 175.942 200.69 175.469 200.448Z" fill="#343564"/>
<path d="M116.586 160.775L175.469 194.935C175.941 195.179 176.464 195.306 176.994 195.306C177.525 195.306 178.047 195.179 178.519 194.935L237.414 160.775C238.259 160.28 238.259 159.491 237.414 159.008L178.519 126.026C178.047 125.782 177.525 125.655 176.994 125.655C176.464 125.655 175.941 125.782 175.469 126.026L116.586 159.008C115.741 159.503 115.741 160.28 116.586 160.775Z" fill="#434477"/>
<path d="M177.006 195.288V200.812C176.475 200.825 175.95 200.699 175.481 200.447L116.586 166.288C116.141 165.998 115.771 165.607 115.506 165.146C115.241 164.685 115.089 164.169 115.061 163.637V161.658C115.081 161.189 115.198 160.729 115.404 160.307C115.61 159.886 115.9 159.511 116.257 159.208C115.706 159.691 115.8 160.386 116.539 160.775L175.434 194.935C175.918 195.19 176.46 195.312 177.006 195.288Z" fill="#505288"/>
<path d="M175.469 183.839L135.588 160.739C135.145 160.449 134.776 160.057 134.511 159.597C134.246 159.136 134.093 158.62 134.063 158.089V156.134C134.095 155.604 134.25 155.088 134.515 154.628C134.779 154.168 135.147 153.776 135.588 153.483L161.182 138.677C162.165 138.066 163.034 137.289 163.751 136.38L175.95 119.889C176.245 119.508 176.666 119.245 177.137 119.148C177.608 119.05 178.098 119.125 178.519 119.359L218.4 142.446C218.844 142.736 219.214 143.128 219.479 143.588C219.743 144.049 219.896 144.565 219.925 145.097V158.136C219.895 158.667 219.741 159.183 219.476 159.643C219.211 160.103 218.843 160.495 218.4 160.787L178.519 183.874C178.045 184.112 177.52 184.234 176.99 184.227C176.459 184.221 175.938 184.088 175.469 183.839Z" fill="#343564"/>
<path d="M178.519 178.349L204.066 163.543C205.051 162.911 205.919 162.114 206.635 161.187L218.834 144.696C218.981 144.518 219.086 144.31 219.141 144.086C219.197 143.862 219.202 143.628 219.156 143.402C219.11 143.176 219.014 142.964 218.875 142.78C218.736 142.596 218.558 142.446 218.353 142.34L178.472 119.253C178.051 119.019 177.561 118.944 177.09 119.041C176.619 119.139 176.198 119.402 175.903 119.783L163.704 136.274C163.066 137.192 162.272 137.989 161.358 138.63L135.553 153.342C135.368 153.403 135.207 153.522 135.093 153.681C134.979 153.839 134.917 154.03 134.917 154.225C134.917 154.421 134.979 154.612 135.093 154.77C135.207 154.929 135.368 155.047 135.553 155.109L175.434 178.208C175.899 178.48 176.422 178.635 176.959 178.659C177.496 178.684 178.032 178.578 178.519 178.349Z" fill="#434477"/>
<path d="M218.306 142.434L178.425 119.347C178.004 119.113 177.514 119.039 177.043 119.136C176.572 119.233 176.151 119.496 175.856 119.877L163.657 136.368C163.284 136.842 162.868 137.279 162.414 137.676C162.414 137.676 205.404 162.553 205.404 162.542C205.857 162.149 206.273 161.716 206.647 161.246L218.846 144.755C218.984 144.574 219.08 144.365 219.128 144.142C219.175 143.919 219.173 143.689 219.122 143.467C219.07 143.245 218.97 143.037 218.829 142.859C218.688 142.68 218.51 142.535 218.306 142.434Z" fill="#434477"/>
<path d="M145.3 153.896C145.854 153.611 146.467 153.463 147.089 153.463C147.711 153.463 148.324 153.611 148.878 153.896C149.093 153.97 149.28 154.109 149.412 154.295C149.545 154.481 149.616 154.704 149.616 154.932C149.616 155.161 149.545 155.383 149.412 155.569C149.28 155.755 149.093 155.895 148.878 155.969C148.322 156.248 147.71 156.393 147.089 156.393C146.468 156.393 145.856 156.248 145.3 155.969C145.085 155.895 144.898 155.755 144.766 155.569C144.633 155.383 144.562 155.161 144.562 154.932C144.562 154.704 144.633 154.481 144.766 154.295C144.898 154.109 145.085 153.97 145.3 153.896Z" fill="white"/>
<path d="M152.455 158.042C153.001 157.766 153.604 157.622 154.215 157.622C154.826 157.622 155.429 157.766 155.974 158.042C156.19 158.116 156.377 158.256 156.509 158.442C156.641 158.627 156.712 158.85 156.712 159.079C156.712 159.307 156.641 159.53 156.509 159.716C156.377 159.902 156.19 160.041 155.974 160.115C155.427 160.386 154.825 160.527 154.215 160.527C153.605 160.527 153.003 160.386 152.455 160.115C152.24 160.041 152.053 159.902 151.921 159.716C151.789 159.53 151.717 159.307 151.717 159.079C151.717 158.85 151.789 158.627 151.921 158.442C152.053 158.256 152.24 158.116 152.455 158.042Z" fill="white"/>
<path d="M159.658 162.176C160.213 161.897 160.825 161.752 161.446 161.752C162.067 161.752 162.68 161.897 163.235 162.176C163.45 162.25 163.637 162.39 163.77 162.576C163.902 162.762 163.973 162.984 163.973 163.213C163.973 163.441 163.902 163.664 163.77 163.85C163.637 164.036 163.45 164.176 163.235 164.249C162.681 164.534 162.068 164.682 161.446 164.682C160.824 164.682 160.211 164.534 159.658 164.249C159.442 164.176 159.255 164.036 159.123 163.85C158.991 163.664 158.92 163.441 158.92 163.213C158.92 162.984 158.991 162.762 159.123 162.576C159.255 162.39 159.442 162.25 159.658 162.176Z" fill="#343564"/>
<path d="M166.695 166.323C167.251 166.044 167.863 165.899 168.484 165.899C169.105 165.899 169.718 166.044 170.273 166.323C170.488 166.397 170.675 166.536 170.807 166.722C170.94 166.908 171.011 167.131 171.011 167.359C171.011 167.588 170.94 167.811 170.807 167.996C170.675 168.182 170.488 168.322 170.273 168.396C169.719 168.68 169.106 168.828 168.484 168.828C167.862 168.828 167.249 168.68 166.695 168.396C166.48 168.322 166.293 168.182 166.161 167.996C166.029 167.811 165.957 167.588 165.957 167.359C165.957 167.131 166.029 166.908 166.161 166.722C166.293 166.536 166.48 166.397 166.695 166.323Z" fill="#343564"/>
<path d="M152.455 153.283C153.848 153.283 154.977 152.629 154.977 151.822C154.977 151.016 153.848 150.362 152.455 150.362C151.063 150.362 149.934 151.016 149.934 151.822C149.934 152.629 151.063 153.283 152.455 153.283Z" fill="white"/>
<path d="M157.816 154.932C158.362 154.656 158.964 154.512 159.575 154.512C160.187 154.512 160.789 154.656 161.335 154.932C161.55 155.006 161.737 155.146 161.869 155.332C162.002 155.518 162.073 155.74 162.073 155.969C162.073 156.197 162.002 156.42 161.869 156.606C161.737 156.792 161.55 156.932 161.335 157.006C160.788 157.277 160.186 157.418 159.575 157.418C158.965 157.418 158.363 157.277 157.816 157.006C156.819 156.428 156.819 155.498 157.816 154.932Z" fill="#343564"/>
<path d="M166.742 161.576C168.135 161.576 169.264 160.922 169.264 160.115C169.264 159.308 168.135 158.654 166.742 158.654C165.35 158.654 164.22 159.308 164.22 160.115C164.22 160.922 165.35 161.576 166.742 161.576Z" fill="white"/>
<path d="M172.103 163.213C172.651 162.944 173.252 162.804 173.862 162.804C174.472 162.804 175.074 162.944 175.622 163.213C175.837 163.287 176.024 163.427 176.156 163.613C176.289 163.798 176.36 164.021 176.36 164.25C176.36 164.478 176.289 164.701 176.156 164.887C176.024 165.073 175.837 165.212 175.622 165.286C175.076 165.561 174.473 165.704 173.862 165.704C173.251 165.704 172.649 165.561 172.103 165.286C171.888 165.212 171.701 165.073 171.568 164.887C171.436 164.701 171.365 164.478 171.365 164.25C171.365 164.021 171.436 163.798 171.568 163.613C171.701 163.427 171.888 163.287 172.103 163.213Z" fill="#343564"/>
<path d="M156.021 147.676C156.569 147.407 157.171 147.266 157.781 147.266C158.391 147.266 158.992 147.407 159.54 147.676C159.756 147.75 159.942 147.889 160.075 148.075C160.207 148.261 160.278 148.484 160.278 148.713C160.278 148.941 160.207 149.164 160.075 149.35C159.942 149.536 159.756 149.675 159.54 149.749C158.994 150.024 158.392 150.167 157.781 150.167C157.17 150.167 156.567 150.024 156.021 149.749C155.806 149.675 155.619 149.536 155.487 149.35C155.354 149.164 155.283 148.941 155.283 148.713C155.283 148.484 155.354 148.261 155.487 148.075C155.619 147.889 155.806 147.75 156.021 147.676Z" fill="#343564"/>
<path d="M163.176 151.822C163.722 151.546 164.325 151.402 164.936 151.402C165.547 151.402 166.15 151.546 166.695 151.822C166.911 151.896 167.098 152.036 167.23 152.222C167.362 152.408 167.433 152.63 167.433 152.859C167.433 153.087 167.362 153.31 167.23 153.496C167.098 153.682 166.911 153.822 166.695 153.896C166.148 154.167 165.546 154.308 164.936 154.308C164.326 154.308 163.724 154.167 163.176 153.896C162.961 153.822 162.774 153.682 162.642 153.496C162.51 153.31 162.438 153.087 162.438 152.859C162.438 152.63 162.51 152.408 162.642 152.222C162.774 152.036 162.961 151.896 163.176 151.822Z" fill="white"/>
<path d="M170.32 155.969C170.866 155.694 171.468 155.551 172.079 155.551C172.69 155.551 173.293 155.694 173.839 155.969C174.054 156.043 174.241 156.182 174.373 156.368C174.506 156.554 174.577 156.777 174.577 157.005C174.577 157.234 174.506 157.457 174.373 157.643C174.241 157.828 174.054 157.968 173.839 158.042C173.291 158.311 172.689 158.452 172.079 158.452C171.469 158.452 170.868 158.311 170.32 158.042C170.105 157.968 169.918 157.828 169.785 157.643C169.653 157.457 169.582 157.234 169.582 157.005C169.582 156.777 169.653 156.554 169.785 156.368C169.918 156.182 170.105 156.043 170.32 155.969Z" fill="#343564"/>
<path d="M173.933 170.387C174.486 170.102 175.1 169.954 175.721 169.954C176.343 169.954 176.956 170.102 177.51 170.387C177.726 170.461 177.912 170.6 178.045 170.786C178.177 170.972 178.248 171.195 178.248 171.423C178.248 171.652 178.177 171.874 178.045 172.06C177.912 172.246 177.726 172.386 177.51 172.46C176.955 172.739 176.342 172.884 175.721 172.884C175.101 172.884 174.488 172.739 173.933 172.46C173.717 172.386 173.53 172.246 173.398 172.06C173.266 171.874 173.195 171.652 173.195 171.423C173.195 171.195 173.266 170.972 173.398 170.786C173.53 170.6 173.717 170.461 173.933 170.387Z" fill="white"/>
<path d="M181.076 169.774C182.469 169.774 183.598 169.12 183.598 168.313C183.598 167.507 182.469 166.853 181.076 166.853C179.683 166.853 178.554 167.507 178.554 168.313C178.554 169.12 179.683 169.774 181.076 169.774Z" fill="#343564"/>
<path d="M177.463 160.115C178.01 159.841 178.612 159.698 179.223 159.698C179.834 159.698 180.436 159.841 180.982 160.115C181.198 160.189 181.384 160.329 181.517 160.515C181.649 160.701 181.72 160.923 181.72 161.152C181.72 161.38 181.649 161.603 181.517 161.789C181.384 161.975 181.198 162.114 180.982 162.188C180.435 162.458 179.833 162.598 179.223 162.598C178.613 162.598 178.011 162.458 177.463 162.188C177.248 162.114 177.061 161.975 176.929 161.789C176.796 161.603 176.725 161.38 176.725 161.152C176.725 160.923 176.796 160.701 176.929 160.515C177.061 160.329 177.248 160.189 177.463 160.115Z" fill="#343564"/>
<path d="M161.382 144.578C161.936 144.294 162.549 144.146 163.171 144.146C163.793 144.146 164.406 144.294 164.959 144.578C165.175 144.652 165.362 144.792 165.494 144.978C165.626 145.164 165.697 145.386 165.697 145.615C165.697 145.843 165.626 146.066 165.494 146.252C165.362 146.438 165.175 146.578 164.959 146.651C164.404 146.93 163.792 147.075 163.171 147.075C162.55 147.075 161.937 146.93 161.382 146.651C161.166 146.578 160.98 146.438 160.847 146.252C160.715 146.066 160.644 145.843 160.644 145.615C160.644 145.386 160.715 145.164 160.847 144.978C160.98 144.792 161.166 144.652 161.382 144.578Z" fill="white"/>
<path d="M170.32 151.21C171.713 151.21 172.842 150.556 172.842 149.749C172.842 148.943 171.713 148.289 170.32 148.289C168.927 148.289 167.798 148.943 167.798 149.749C167.798 150.556 168.927 151.21 170.32 151.21Z" fill="#343564"/>
<path d="M175.68 152.859C176.228 152.588 176.83 152.447 177.44 152.447C178.05 152.447 178.652 152.588 179.199 152.859C179.415 152.933 179.602 153.073 179.734 153.258C179.866 153.444 179.937 153.667 179.937 153.896C179.937 154.124 179.866 154.347 179.734 154.533C179.602 154.719 179.415 154.858 179.199 154.932C178.654 155.209 178.051 155.353 177.44 155.353C176.829 155.353 176.226 155.209 175.68 154.932C175.465 154.858 175.278 154.719 175.146 154.533C175.014 154.347 174.942 154.124 174.942 153.896C174.942 153.667 175.014 153.444 175.146 153.258C175.278 153.073 175.465 152.933 175.68 152.859Z" fill="white"/>
<path d="M184.607 159.502C186 159.502 187.129 158.849 187.129 158.042C187.129 157.235 186 156.581 184.607 156.581C183.214 156.581 182.085 157.235 182.085 158.042C182.085 158.849 183.214 159.502 184.607 159.502Z" fill="#343564"/>
<path d="M184.654 164.179C185.207 163.895 185.821 163.746 186.442 163.746C187.064 163.746 187.678 163.895 188.231 164.179C188.448 164.25 188.637 164.387 188.771 164.573C188.905 164.758 188.977 164.981 188.977 165.21C188.977 165.438 188.905 165.661 188.771 165.847C188.637 166.032 188.448 166.17 188.231 166.24C187.678 166.525 187.064 166.673 186.442 166.673C185.821 166.673 185.207 166.525 184.654 166.24C184.437 166.17 184.248 166.032 184.114 165.847C183.98 165.661 183.908 165.438 183.908 165.21C183.908 164.981 183.98 164.758 184.114 164.573C184.248 164.387 184.437 164.25 184.654 164.179Z" fill="white"/>
<path d="M190.014 161.069C190.56 160.793 191.162 160.649 191.774 160.649C192.385 160.649 192.987 160.793 193.533 161.069C194.53 161.635 194.53 162.565 193.533 163.142C192.986 163.414 192.384 163.555 191.774 163.555C191.163 163.555 190.561 163.414 190.014 163.142C189.799 163.069 189.612 162.929 189.48 162.743C189.347 162.557 189.276 162.334 189.276 162.106C189.276 161.877 189.347 161.655 189.48 161.469C189.612 161.283 189.799 161.143 190.014 161.069Z" fill="#343564"/>
<path d="M177.088 178.715V184.227C176.531 184.254 175.976 184.132 175.481 183.874L135.6 160.775C135.155 160.485 134.785 160.094 134.52 159.633C134.255 159.173 134.103 158.656 134.075 158.124V156.134C134.101 155.661 134.225 155.199 134.439 154.777C134.653 154.355 134.953 153.983 135.318 153.684C134.767 154.167 134.861 154.862 135.6 155.25L175.481 178.349C175.975 178.612 176.53 178.738 177.088 178.715Z" fill="#505288"/>
<path d="M169.041 135.685C169.237 135.429 169.518 135.253 169.832 135.188C170.147 135.123 170.474 135.174 170.754 135.331L205.404 155.38C205.533 155.452 205.645 155.551 205.732 155.671C205.82 155.791 205.88 155.929 205.909 156.075C205.938 156.22 205.935 156.37 205.9 156.515C205.866 156.659 205.8 156.794 205.709 156.911C205.513 157.166 205.233 157.344 204.919 157.41C204.606 157.477 204.278 157.43 203.996 157.276L169.335 137.228C169.206 137.153 169.095 137.052 169.009 136.93C168.923 136.809 168.864 136.67 168.836 136.524C168.808 136.377 168.812 136.226 168.847 136.082C168.883 135.937 168.949 135.801 169.041 135.685Z" fill="#ADAFD2"/>
<path d="M169.041 135.685C169.237 135.429 169.518 135.253 169.832 135.188C170.147 135.123 170.474 135.174 170.754 135.331L196.559 150.267L195.128 152.211L169.323 137.275C169.188 137.2 169.071 137.096 168.981 136.97C168.891 136.845 168.83 136.7 168.803 136.548C168.776 136.395 168.783 136.238 168.825 136.089C168.866 135.94 168.94 135.801 169.041 135.685Z" fill="white"/>
<path d="M171.892 131.821C172.087 131.566 172.368 131.39 172.682 131.325C172.997 131.26 173.324 131.311 173.604 131.468L208.266 151.563C208.396 151.634 208.509 151.733 208.598 151.853C208.686 151.972 208.747 152.11 208.777 152.255C208.808 152.401 208.806 152.552 208.772 152.697C208.738 152.842 208.674 152.977 208.582 153.095C208.382 153.347 208.099 153.521 207.784 153.585C207.469 153.65 207.141 153.601 206.858 153.448L172.208 133.364C172.078 133.292 171.964 133.192 171.876 133.072C171.788 132.951 171.726 132.813 171.696 132.666C171.666 132.519 171.668 132.368 171.702 132.222C171.735 132.076 171.8 131.94 171.892 131.821Z" fill="#ADAFD2"/>
<path d="M171.892 131.821C172.087 131.566 172.368 131.39 172.682 131.325C172.997 131.26 173.324 131.311 173.604 131.468L182.214 136.462L180.771 138.347L172.161 133.364C172.035 133.288 171.926 133.185 171.842 133.063C171.758 132.94 171.701 132.801 171.676 132.655C171.65 132.508 171.656 132.358 171.693 132.214C171.731 132.071 171.798 131.937 171.892 131.821Z" fill="white"/>
<path d="M174.754 127.97C174.949 127.714 175.23 127.538 175.545 127.473C175.859 127.408 176.186 127.459 176.466 127.616L211.128 147.712C211.258 147.784 211.372 147.884 211.46 148.004C211.549 148.125 211.61 148.263 211.64 148.41C211.67 148.557 211.668 148.708 211.634 148.854C211.601 149 211.536 149.136 211.445 149.255C211.246 149.506 210.965 149.68 210.652 149.744C210.339 149.809 210.013 149.761 209.732 149.608L175.07 129.501C174.94 129.43 174.827 129.331 174.739 129.212C174.65 129.092 174.589 128.955 174.559 128.809C174.529 128.663 174.53 128.513 174.564 128.368C174.598 128.223 174.662 128.087 174.754 127.97Z" fill="#ADAFD2"/>
<path d="M174.754 127.97C174.949 127.714 175.23 127.538 175.545 127.473C175.859 127.408 176.186 127.459 176.466 127.616L194.518 138.053L193.087 139.984L175.035 129.56C174.898 129.487 174.78 129.384 174.688 129.258C174.597 129.132 174.535 128.987 174.508 128.834C174.481 128.68 174.489 128.523 174.532 128.373C174.574 128.223 174.65 128.085 174.754 127.97Z" fill="white"/>
<path d="M177.616 124.106C177.811 123.85 178.091 123.673 178.405 123.606C178.719 123.539 179.046 123.587 179.328 123.741L214.037 143.789C214.166 143.862 214.279 143.963 214.366 144.084C214.453 144.205 214.513 144.344 214.542 144.49C214.571 144.637 214.568 144.788 214.534 144.933C214.499 145.078 214.434 145.215 214.342 145.332C214.146 145.588 213.865 145.764 213.551 145.829C213.237 145.894 212.909 145.843 212.629 145.685L177.933 125.637C177.802 125.566 177.689 125.467 177.601 125.348C177.512 125.228 177.451 125.091 177.421 124.945C177.391 124.799 177.392 124.649 177.426 124.504C177.46 124.359 177.525 124.223 177.616 124.106Z" fill="#ADAFD2"/>
<path d="M177.616 124.106C177.811 123.85 178.091 123.673 178.405 123.606C178.719 123.539 179.046 123.587 179.328 123.741L210.799 141.987L209.357 143.919L177.933 125.637C177.802 125.566 177.689 125.467 177.601 125.348C177.512 125.228 177.451 125.091 177.421 124.945C177.391 124.799 177.392 124.649 177.426 124.504C177.46 124.359 177.525 124.223 177.616 124.106Z" fill="white"/>
</svg>
