<svg width="291" height="289" viewBox="0 0 291 289" fill="none" xmlns="http://www.w3.org/2000/svg">
<path d="M48.3492 19.0485H262.208C277.558 19.0485 290.002 31.4921 290.002 46.8422V260.701C290.002 276.051 277.558 288.495 262.208 288.495H48.3492C32.9992 288.495 20.5555 276.051 20.5555 260.701V46.8422C20.5555 31.4921 32.9992 19.0485 48.3492 19.0485Z" fill="#CCCCCC"/>
<path d="M24.308 0H203.472C216.346 0 226.782 10.4361 226.782 23.3098V202.474C226.782 215.348 216.346 225.784 203.472 225.784H24.308C11.4343 225.784 0.998199 215.348 0.998199 202.474V23.3098C0.998199 10.4361 11.4343 0 24.308 0Z" fill="#434477"/>
<path d="M176.346 174.871C177.986 173.232 179.286 171.286 180.174 169.145C181.061 167.003 181.518 164.708 181.518 162.389C181.518 160.071 181.061 157.776 180.174 155.634C179.286 153.493 177.986 151.547 176.346 149.908L135.006 108.758C134.086 107.829 132.992 107.092 131.786 106.589C130.579 106.086 129.285 105.826 127.978 105.826C126.671 105.826 125.377 106.086 124.171 106.589C122.964 107.092 121.87 107.829 120.95 108.758L110.075 119.602C109.145 120.524 108.407 121.622 107.903 122.831C107.4 124.039 107.14 125.336 107.14 126.646C107.14 127.955 107.4 129.252 107.903 130.461C108.407 131.67 109.145 132.767 110.075 133.69L151.256 174.871C152.893 176.537 154.845 177.861 156.999 178.764C159.153 179.668 161.466 180.133 163.801 180.133C166.137 180.133 168.449 179.668 170.603 178.764C172.757 177.861 174.71 176.537 176.346 174.871Z" fill="white"/>
<path d="M100.47 107.104L108.579 98.9953L62.0553 52.4713L51.911 50.4361L53.9462 60.5804L100.47 107.104Z" fill="white"/>
<path d="M105.05 117.885L119.36 103.543C119.673 103.246 119.921 102.888 120.092 102.492C120.262 102.095 120.35 101.668 120.35 101.237C120.35 100.806 120.262 100.379 120.092 99.9826C119.921 99.5863 119.673 99.2286 119.36 98.9316C119.062 98.6138 118.703 98.3606 118.303 98.1874C117.904 98.0143 117.474 97.9249 117.038 97.9249C116.603 97.9249 116.173 98.0143 115.773 98.1874C115.374 98.3606 115.014 98.6138 114.717 98.9316L100.407 113.242C100.089 113.539 99.8357 113.899 99.6625 114.298C99.4894 114.697 99.4001 115.128 99.4001 115.563C99.4001 115.998 99.4894 116.429 99.6625 116.828C99.8357 117.228 100.089 117.587 100.407 117.885C100.704 118.202 101.064 118.456 101.463 118.629C101.862 118.802 102.293 118.891 102.728 118.891C103.163 118.891 103.594 118.802 103.993 118.629C104.393 118.456 104.752 118.202 105.05 117.885Z" fill="white"/>
<path d="M124.321 90.409L143.942 70.7246C140.285 60.8983 147.694 48.8141 155.74 45.6341L155.899 60.7711C155.899 62.4579 156.569 64.0756 157.761 65.2683C158.954 66.4611 160.572 67.1311 162.259 67.1311C163.946 67.1311 165.563 66.4611 166.756 65.2683C167.949 64.0756 168.619 62.4579 168.619 60.7711V45.8885C172.31 47.3843 175.497 49.9024 177.807 53.1471C180.117 56.3917 181.452 60.2281 181.657 64.2055C181.61 68.9009 179.864 73.4205 176.742 76.9281C173.62 80.4358 169.334 82.6942 164.676 83.2857C161.433 83.7838 158.116 83.3194 155.135 81.9501L135.356 101.794L124.321 90.409Z" fill="white"/>
<path d="M59.0028 165.077V180.118C55.3117 178.623 52.1242 176.104 49.8146 172.86C47.505 169.615 46.1694 165.779 45.9646 161.801C45.9344 157.125 47.5891 152.594 50.6256 149.038C53.6622 145.482 57.8777 143.138 62.5009 142.435C65.5422 141.805 68.7034 142.115 71.564 143.325L92.107 122.719L103.364 133.976L82.9485 154.424C88.8634 166.508 79.7684 176.684 71.5957 179.864V164.918C71.5957 163.231 70.9257 161.613 69.7329 160.421C68.5402 159.228 66.9225 158.558 65.2357 158.558C64.3977 158.574 63.5712 158.756 62.8038 159.093C62.0363 159.43 61.3431 159.915 60.7638 160.521C60.1846 161.127 59.7309 161.841 59.4287 162.623C59.1264 163.405 58.9817 164.239 59.0028 165.077Z" fill="white"/>
</svg>
