<svg width="117" height="117" viewBox="0 0 117 117" fill="none" xmlns="http://www.w3.org/2000/svg">
<path d="M10.6179 23.7652L23.7261 10.657L31.0776 16.7638C36.2813 13.339 42.0896 10.9365 48.1921 9.68461L49.0868 0.154915L67.446 -0.000676305L68.3406 9.52899C74.4431 10.7809 80.2514 13.1834 85.4551 16.6082L92.8455 10.4625L106.031 23.6485L99.8858 31.0389C103.311 36.2426 105.713 42.0509 106.965 48.1534L116.495 49.048L116.534 67.6017L107.004 68.4963C105.752 74.5988 103.349 80.4071 99.9246 85.6108L106.031 92.9623L92.9233 106.071L85.5718 99.9637C80.368 103.388 74.5598 105.791 68.4573 107.043L67.5626 116.573L49.0478 116.573L48.1532 107.043C42.0507 105.791 36.2424 103.388 31.0387 99.9637L23.6872 106.07L10.5791 92.9623L16.6858 85.6108C13.261 80.4071 10.8585 74.5988 9.6066 68.4963L0.0769295 67.6017L0.0769303 49.0869L9.60663 48.1922C10.8585 42.0897 13.2611 36.2815 16.6858 31.0777L10.6179 23.7652ZM40.6462 76.12C44.1542 79.6281 48.6237 82.0171 53.4894 82.9849C58.3552 83.9528 63.3987 83.456 67.9822 81.5575C72.5656 79.659 76.4831 76.444 79.2394 72.319C81.9956 68.194 83.4668 63.3443 83.4668 58.3832C83.4668 53.4221 81.9956 48.5724 79.2394 44.4474C76.4832 40.3224 72.5656 37.1074 67.9822 35.2089C63.3987 33.3103 58.3552 32.8136 53.4894 33.7814C48.6237 34.7493 44.1542 37.1383 40.6462 40.6463C35.9421 45.3504 33.2993 51.7306 33.2993 58.3832C33.2993 65.0359 35.9421 71.4159 40.6462 76.12Z" fill="#5C609A"/>
</svg>
