<svg width="288" height="277" viewBox="0 0 288 277" fill="none" xmlns="http://www.w3.org/2000/svg">
<path d="M218.623 243.775H25.1523C11.261 243.775 0 232.514 0 218.623L0 25.1521C0 11.2608 11.261 -0.000244141 25.1523 -0.000244141H218.623C232.514 -0.000244141 243.775 11.2608 243.775 25.1521V218.623C243.775 232.514 232.514 243.775 218.623 243.775Z" fill="#D9DAE4"/>
<path d="M46.1641 6.47203H260.173C275.541 6.47203 288 18.9306 288 34.299V248.308C288 263.676 275.541 276.135 260.173 276.135H46.1641C30.7957 276.135 18.3371 263.676 18.3371 248.308V34.299C18.3371 18.9306 30.7957 6.47203 46.1641 6.47203Z" fill="#E8E8E8"/>
<path d="M229.298 243.775H34.9714C21.0187 243.775 9.70786 232.514 9.70786 218.623V25.1521C9.70786 11.2609 21.0187 -0.000183105 34.9714 -0.000183105H229.298C243.251 -0.000183105 254.562 11.2609 254.562 25.1521V218.623C254.562 232.514 243.251 243.775 229.298 243.775Z" fill="#434477"/>
<path d="M132.035 46.3821L57.1685 75.656C57.1685 75.656 66.634 178.172 132.121 197.393C197.636 178.172 207.101 75.656 207.101 75.656L132.035 46.3821ZM130.147 145.651C129.66 146.289 129.034 146.808 128.315 147.168C127.597 147.528 126.805 147.72 126.001 147.73C125.188 147.717 124.39 147.514 123.669 147.139C122.949 146.763 122.328 146.224 121.854 145.566L95.5739 109.486C95.174 108.938 94.8864 108.317 94.7274 107.659C94.5684 107 94.5412 106.317 94.6475 105.648C94.7537 104.979 94.9912 104.337 95.3464 103.76C95.7016 103.182 96.1676 102.68 96.7178 102.282C97.2679 101.883 97.8915 101.597 98.5529 101.439C99.2142 101.28 99.9004 101.253 100.572 101.359C101.244 101.465 101.888 101.701 102.468 102.055C103.048 102.409 103.553 102.873 103.953 103.421L126.144 133.834L162.404 86.1638C163.233 85.0788 164.459 84.3648 165.815 84.178C167.171 83.9912 168.546 84.3469 169.639 85.1672C170.712 86.0805 171.407 87.3563 171.592 88.7494C171.777 90.1424 171.438 91.5542 170.64 92.7135L130.147 145.651Z" fill="white"/>
</svg>
