<svg width="280" height="297" viewBox="0 0 280 297" fill="none" xmlns="http://www.w3.org/2000/svg">
<path d="M250.563 16.6731H28.8186C12.9025 16.6731 0 29.5756 0 45.4917V267.237C0 283.153 12.9025 296.055 28.8186 296.055H250.563C266.48 296.055 279.382 283.153 279.382 267.237V45.4917C279.382 29.5756 266.48 16.6731 250.563 16.6731Z" fill="#36365F"/>
<path d="M254.939 0H69.1676C55.8193 0 44.9983 10.821 44.9983 24.1694V209.94C44.9983 223.289 55.8193 234.11 69.1676 234.11H254.939C268.287 234.11 279.108 223.289 279.108 209.94V24.1694C279.108 10.821 268.287 0 254.939 0Z" fill="white"/>
<path d="M180.089 90.0168V75.8713L172.802 75.1788C171.847 70.4754 170.001 65.9983 167.362 61.9895L172.044 56.3182L162.152 46.4262L156.514 51.1084C152.5 48.4788 148.025 46.6328 143.324 45.6678L142.599 38.2488H128.453L127.827 45.6678C123.126 46.6328 118.651 48.4788 114.638 51.1084L108.999 46.4262L99.1072 56.3182L103.789 61.9895C101.15 65.9983 99.3037 70.4754 98.3488 75.1788L91.0617 75.8713V90.0168L98.3488 90.7092C99.3137 95.4096 101.16 99.8848 103.789 103.899L99.1072 109.57L108.999 119.462L114.638 114.78C118.651 117.409 123.126 119.255 127.827 120.22L128.519 127.507H142.665L143.357 120.22C148.058 119.255 152.533 117.409 156.547 114.78L162.185 119.462L172.077 109.57L167.395 103.8C170.024 99.7859 171.87 95.3107 172.835 90.6103L180.089 90.0168ZM135.543 102.118C131.744 102.124 128.029 101.004 124.869 98.8975C121.708 96.7914 119.243 93.7946 117.786 90.2866C116.33 86.7787 115.947 82.9174 116.686 79.1918C117.426 75.4661 119.254 72.0437 121.94 69.3579C124.626 66.6721 128.048 64.8437 131.774 64.1043C135.5 63.3649 139.361 63.7477 142.869 65.2043C146.377 66.6608 149.373 69.1256 151.48 72.2865C153.586 75.4474 154.707 79.1622 154.7 82.9605C154.691 88.0387 152.67 92.9064 149.079 96.4972C145.488 100.088 140.621 102.109 135.543 102.118Z" fill="#434477"/>
<path d="M237.463 130.013V118.901L231.758 118.374C231.004 114.717 229.561 111.236 227.505 108.119L231.165 103.701L223.449 95.8531L219.031 99.5132C215.914 97.4572 212.433 96.0136 208.776 95.2596L208.248 89.5223H197.071L196.543 95.2596C192.886 96.0136 189.406 97.4572 186.288 99.5132L181.87 95.8531L173.989 103.701L177.649 108.119C175.593 111.236 174.15 114.717 173.396 118.374L167.691 118.901V130.013L173.396 130.541C174.15 134.198 175.593 137.678 177.649 140.796L173.989 145.214L181.837 153.062L186.255 149.402C189.373 151.458 192.853 152.901 196.51 153.655L197.038 159.36H208.15L208.677 153.655C212.334 152.901 215.815 151.458 218.932 149.402L223.35 153.062L231.198 145.214L227.538 140.796C229.594 137.678 231.037 134.198 231.791 130.541L237.463 130.013ZM202.544 139.477C199.57 139.477 196.663 138.595 194.191 136.943C191.718 135.291 189.791 132.942 188.653 130.195C187.515 127.447 187.217 124.424 187.797 121.508C188.377 118.591 189.809 115.912 191.912 113.809C194.015 111.706 196.694 110.274 199.611 109.694C202.527 109.114 205.551 109.412 208.298 110.55C211.045 111.688 213.394 113.615 215.046 116.087C216.698 118.56 217.58 121.467 217.58 124.441C217.58 128.429 215.996 132.253 213.176 135.073C210.356 137.893 206.532 139.477 202.544 139.477Z" fill="#434477"/>
<path d="M180.09 161.503V152.171L175.276 151.742C174.649 148.673 173.44 145.751 171.714 143.136L174.781 139.411L168.186 132.816L164.46 135.882C161.839 134.168 158.92 132.96 155.854 132.321L155.393 127.507H146.061L145.6 132.321C142.534 132.96 139.615 134.168 136.994 135.882L133.268 132.816L126.673 139.411L129.74 143.136C128.014 145.751 126.805 148.673 126.178 151.742L121.364 152.171V161.503L126.178 161.964C126.817 165.03 128.025 167.949 129.74 170.57L126.673 174.296L133.268 180.891L136.994 177.824C139.62 179.535 142.536 180.753 145.6 181.418L146.061 186.199H155.393L155.854 181.418C158.918 180.753 161.834 179.535 164.46 177.824L168.186 180.891L174.781 174.296L171.714 170.57C173.429 167.949 174.637 165.03 175.276 161.964L180.09 161.503ZM150.908 169.449C148.408 169.456 145.962 168.72 143.88 167.335C141.798 165.949 140.174 163.977 139.214 161.668C138.254 159.359 138.001 156.818 138.488 154.365C138.974 151.912 140.177 149.659 141.946 147.891C143.714 146.122 145.967 144.919 148.42 144.433C150.873 143.947 153.414 144.199 155.723 145.159C158.032 146.119 160.004 147.743 161.389 149.825C162.775 151.907 163.511 154.353 163.504 156.853C163.504 160.194 162.177 163.398 159.815 165.76C157.453 168.122 154.249 169.449 150.908 169.449Z" fill="#434477"/>
</svg>
