<svg width="150" height="149" viewBox="0 0 150 149" fill="none" xmlns="http://www.w3.org/2000/svg">
<path d="M14.48 30.2628L31.1667 13.5762L40.5797 21.3555C47.2545 16.9336 54.7144 13.8308 62.5563 12.2148L63.7232 0.00127414L87.0612 0.00127516L88.1892 12.1759C96.0259 13.8087 103.483 16.9102 110.166 21.3167L119.773 13.4206L136.46 30.1073L128.447 39.5981C132.854 46.2811 135.955 53.7379 137.588 61.5747L149.763 62.7027L149.763 86.0407L137.549 87.2075C135.933 95.0494 132.83 102.509 128.408 109.184L136.188 118.597L119.501 135.284L110.088 127.505C103.405 131.911 95.9481 135.012 88.1114 136.645L86.9446 148.859L63.6066 148.859L62.4785 136.684C54.6418 135.051 47.185 131.95 40.5019 127.543L31.0889 135.323L14.4023 118.636L22.1816 109.223C17.7751 102.54 14.6736 95.0832 13.0409 87.2464L0.866246 86.1185L0.866245 62.7805L13.1965 61.4969C14.8292 53.6601 17.9307 46.2033 22.3372 39.5203L14.48 30.2628ZM52.7544 97.0873C57.2273 101.576 62.9316 104.636 69.1448 105.88C75.3581 107.124 81.8009 106.497 87.6572 104.077C93.5135 101.657 98.52 97.5534 102.043 92.2862C105.565 87.019 107.446 80.825 107.446 74.4884C107.446 68.1518 105.565 61.9577 102.043 56.6905C98.52 51.4233 93.5135 47.3199 87.6572 44.9001C81.8008 42.4802 75.3581 41.8526 69.1448 43.0968C62.9316 44.341 57.2273 47.4011 52.7544 51.8894C46.7742 57.8902 43.4163 66.0165 43.4163 74.4883C43.4163 82.9601 46.7742 91.0866 52.7544 97.0873V97.0873Z" fill="#5C609A"/>
</svg>
