<svg width="99" height="99" viewBox="0 0 99 99" fill="none" xmlns="http://www.w3.org/2000/svg">
<path d="M9.15185 20.5909L20.1596 9.58315L26.3442 14.7564C30.7046 11.8744 35.5767 9.85424 40.6971 8.80523L41.475 0.792503H57.0336L57.8116 8.80523C62.9257 9.87466 67.7941 11.8932 72.1645 14.7564L78.3879 9.62206L89.3957 20.6298L84.2613 26.8533C87.1245 31.2237 89.1431 36.092 90.2125 41.2061L98.2252 41.9841V57.5428L90.2125 58.3206C89.1635 63.4411 87.1434 68.3131 84.2613 72.6735L89.4346 78.8581L78.4268 89.8659L72.2033 84.7315C67.833 87.5947 62.9646 89.6133 57.8505 90.6827L57.0726 98.6954H41.514L40.736 90.6827C35.6192 89.6031 30.7422 87.5995 26.3442 84.7704L20.1597 89.8658L9.15191 78.8581L14.2474 72.6735C11.4182 68.2755 9.41465 63.3985 8.33506 58.2818L0.322356 57.5038V41.9451L8.33506 41.1673C9.40448 36.0531 11.4231 31.1848 14.2862 26.8144L9.15185 20.5909ZM34.2014 64.3885C37.1434 67.3459 40.8972 69.3634 44.987 70.1853C49.0768 71.0071 53.3185 70.5962 57.1746 69.0049C61.0307 67.4135 64.3275 64.7133 66.6474 61.2463C68.9672 57.7793 70.2056 53.7016 70.2056 49.53C70.2056 45.3585 68.9672 41.2808 66.6474 37.8138C64.3275 34.3468 61.0307 31.6465 57.1746 30.0551C53.3185 28.4638 49.0768 28.053 44.987 28.8748C40.8972 29.6966 37.1433 31.7141 34.2013 34.6715C30.2606 38.6122 28.0468 43.957 28.0468 49.53C28.0468 55.1031 30.2606 60.4478 34.2014 64.3885V64.3885Z" fill="#5C609A"/>
</svg>
