<svg width="289" height="271" viewBox="0 0 289 271" fill="none" xmlns="http://www.w3.org/2000/svg">
<path d="M230.498 13.7479H26.5113C11.8695 13.7479 0 25.6175 0 40.2593V244.246C0 258.887 11.8695 270.757 26.5113 270.757H230.498C245.139 270.757 257.009 258.887 257.009 244.246V40.2593C257.009 25.6175 245.139 13.7479 230.498 13.7479Z" fill="#36365F"/>
<path d="M257.698 0H86.7855C74.5175 0 64.5723 9.94515 64.5723 22.2131V193.126C64.5723 205.394 74.5175 215.339 86.7855 215.339H257.698C269.966 215.339 279.911 205.394 279.911 193.126V22.2131C279.911 9.94515 269.966 0 257.698 0Z" fill="white"/>
<path d="M257.698 0H86.7855C74.5175 0 64.5723 9.94515 64.5723 22.2131V193.126C64.5723 205.394 74.5175 215.339 86.7855 215.339H257.698C269.966 215.339 279.911 205.394 279.911 193.126V22.2131C279.911 9.94515 269.966 0 257.698 0Z" fill="white"/>
<path d="M180.461 142.269C180.461 143.808 180.004 145.313 179.148 146.592C178.292 147.872 177.076 148.869 175.653 149.456C174.23 150.044 172.665 150.196 171.156 149.893C169.646 149.59 168.261 148.847 167.174 147.756C166.088 146.665 165.35 145.276 165.054 143.766C164.758 142.255 164.916 140.691 165.51 139.27C166.103 137.85 167.105 136.638 168.388 135.787C169.671 134.937 171.178 134.486 172.718 134.493C174.774 134.501 176.744 135.324 178.195 136.782C179.646 138.239 180.461 140.212 180.461 142.269Z" fill="white"/>
<path d="M266.787 0H95.8742C83.6062 0 73.6611 9.94515 73.6611 22.2131V193.126C73.6611 205.394 83.6062 215.339 95.8742 215.339H266.787C279.055 215.339 289 205.394 289 193.126V22.2131C289 9.94515 279.055 0 266.787 0Z" fill="white"/>
<path d="M172.028 64.7035C161.889 64.6992 151.847 66.6932 142.478 70.5715C133.11 74.4499 124.597 80.1366 117.427 87.3065C110.257 94.4765 104.57 102.989 100.692 112.358C96.8138 121.727 94.8197 131.768 94.824 141.908H156.476C156.373 139.853 156.708 137.8 157.458 135.885C158.207 133.969 159.355 132.234 160.825 130.795C162.295 129.356 164.054 128.245 165.985 127.536C167.917 126.828 169.976 126.537 172.028 126.684C173.605 126.76 175.162 127.058 176.655 127.569L205.561 94.0037L185.153 133.705C186.75 136.14 187.584 138.996 187.548 141.908H249.364C249.364 131.758 247.363 121.708 243.475 112.333C239.587 102.957 233.888 94.4405 226.705 87.2697C219.522 80.0989 210.996 74.4148 201.614 70.5426C192.232 66.6705 182.178 64.6862 172.028 64.7035Z" fill="#434477"/>
</svg>
